<?xml version="1.0" encoding="utf-8"?>
<!-- Generator: Adobe Illustrator 24.0.1, SVG Export Plug-In . SVG Version: 6.00 Build 0)  -->
<svg version="1.1" id="Layer_1" xmlns="http://www.w3.org/2000/svg" xmlns:xlink="http://www.w3.org/1999/xlink" x="0px" y="0px"
	 viewBox="0 0 200.9 62.2" style="enable-background:new 0 0 200.9 62.2;" xml:space="preserve">
<style type="text/css">
	.st0{fill:#38488E;}
	.st1{fill:#328DA1;}
	.st2{fill:#66BFB6;}
	.st3{fill:#B3D81D;}
	.st4{fill:#3E9F2C;}
	.st5{fill:#247E2C;}
	.st6{fill:#80BF1F;}
	.st7{fill:#2D5C76;}
	.st8{fill:#F79910;}
	.st9{fill:#F75A10;}
	.st10{fill:#FA0F0C;}
	.st11{fill:#F7676B;}
	.st12{fill:#F7310F;}
	.st13{fill:#FCCC12;}
	.st14{fill:#E67A12;}
	.st15{fill:#FCF118;}
	.st16{fill:#EF0A7C;}
	.st17{fill:#820C7D;}
	.st18{fill:#C20C0D;}
	.st19{fill:#B40839;}
	.st20{fill:#A40D52;}
	.st21{fill:#DF1440;}
	.st22{fill:#F0D917;}
	.st23{fill:#F18099;}
	.st24{fill:#252525;}
</style>
<g>
	<g>
		<path class="st0" d="M44.1,41.7C44.1,42,44,42.3,44,42.5c0.1,0,0.4-0.1,0.8-0.3C44.5,42.1,44.3,41.9,44.1,41.7"/>
		<path class="st1" d="M42.5,33.6c-0.3,0.2-0.7,0.4-1,0.5c0.1,0.2,0.2,0.4,0.2,0.6c0,0,0.1,0,0.1,0c0.2-0.1,0.5-0.1,0.7-0.2
			c0-0.2,0-0.3,0-0.5C42.5,33.8,42.5,33.7,42.5,33.6"/>
		<path class="st1" d="M42.1,36.8L42.1,36.8c0-0.1,0-0.1,0-0.1l0,0l0,0c0,0,0.1-0.1,0.1-0.1c0.2-0.1,0.4-0.1,0.5,0.1
			c0,0,0,0.1,0,0.1l0,0c0,0,0,0,0,0.1l0,0c0,0,0,0,0,0.1l0,0l0,0c0,0-0.1,0.1-0.1,0.1c-0.2,0.1-0.4,0.1-0.5-0.1c0,0,0-0.1,0-0.1
			L42.1,36.8C42.1,36.8,42.1,36.8,42.1,36.8 M42.8,37.9c0.2,0,0.4,0,0.6,0.1c0.1-0.4,0.3-0.8,0.6-1.1c-0.7-0.5-1.2-1.3-1.4-2.1
			c-0.1,0-0.2,0.1-0.4,0.1c-0.1,0-0.3,0.1-0.4,0.1c0.1,0.2,0.1,0.5,0.1,0.8c0,0.8-0.2,1.5-0.7,2.1c0,0.3,0.1,0.5,0.1,0.8
			C41.7,38.2,42.2,37.9,42.8,37.9"/>
		<path class="st0" d="M42.5,33.6c0,0.1,0,0.2,0,0.3c0,0.2,0,0.3,0,0.5c0.1,0,0.1,0,0.2-0.1c0.2-0.1,0.3-0.1,0.5-0.2
			c0.2-0.1,0.5-0.2,0.7-0.2c0.1-0.1,0.3-0.1,0.4-0.2l-1-0.9C43.1,33.2,42.8,33.4,42.5,33.6"/>
		<path class="st0" d="M42.6,34.7c0.2,0.9,0.7,1.6,1.4,2.1c0.2-0.2,0.3-0.4,0.5-0.6h0c-0.1-0.1-0.2-0.3-0.3-0.4
			c-0.1-0.2-0.3-0.4-0.5-0.5c0.1,0,0.2-0.1,0.3-0.1c0.2,0.1,0.3,0.4,0.4,0.5c0,0,0,0.1,0,0.1c0,0,0,0.1,0.1,0.1l0,0
			c0.2-0.1,0.4-0.3,0.7-0.2c0.3-0.1,0.5-0.2,0.8-0.3L44.6,34c-0.4,0.2-0.8,0.3-1.1,0.4C43.2,34.5,42.9,34.6,42.6,34.7"/>
		<path class="st2" d="M40.4,34.2L40.4,34.2c0,0.2,0,0.3,0,0.5c0,0.1,0,0.2,0.1,0.3c0.2-0.1,0.4-0.1,0.7-0.2
			c0.2-0.1,0.4-0.1,0.5-0.2c-0.1-0.2-0.1-0.4-0.2-0.6C41.2,34.2,40.8,34.2,40.4,34.2"/>
		<path class="st2" d="M41.8,35c-0.3,0.1-0.6,0.2-0.9,0.2c-0.2,0-0.3,0.1-0.4,0.1c-1,0.3-3.2,0.9-4.1,1c0.1,0.6,2.3,0.7,4.6,0.1
			c0,0.1,0,0.1,0,0.2c0,0.4,0.1,0.9,0.2,1.3c0.4-0.6,0.7-1.3,0.7-2.1C41.9,35.5,41.9,35.2,41.8,35"/>
		<path class="st2" d="M46.6,40L46.6,40L46.6,40L46.6,40L46.6,40L46.6,40c-0.1,0.1-0.1,0.1-0.1,0.1l0,0l0,0c-0.1,0-0.4,0.1-0.4,0.2
			c-0.4,0.2-1.1,0.5-1.6,0.5c-0.2,0.1-0.2,0.5-0.3,0.8c0.2,0.2,0.4,0.4,0.6,0.6c0.4-0.2,0.8-0.4,1-0.6c0.4-0.4,0.8-0.8,1.1-1.2
			C46.8,40.3,46.7,40.2,46.6,40"/>
		<path class="st2" d="M43.4,38c0.7,0.3,1.1,0.9,1.1,1.6c0,0.3-0.1,0.7-0.3,0.9h0.1c0.1,0,0.6-0.2,0.9-0.3c0.2-0.1,0.3-0.1,0.4-0.1
			c0,0,0.1-0.1,0.1-0.1c0.1-0.1,0.3-0.2,0.4-0.2l0,0c0,0,0.1-0.1,0.1-0.2c-0.1-0.3-0.2-0.6-0.2-1c0-0.3,0-0.5,0.1-0.8
			c-0.1-0.1-0.2-0.2-0.2-0.3c-0.8,0-1.5-0.3-2.1-0.7C43.7,37.2,43.6,37.6,43.4,38"/>
		<path class="st1" d="M45.5,35.8c0.5,0.3,0.6,0.8,0.7,1.2c0,0.2,0,0.3,0.1,0.4c0.2-0.1,0.3-0.3,0.4-0.7c0-0.3-0.1-0.7-0.2-1
			l-0.3-0.3c-0.3,0.1-0.6,0.2-0.8,0.3C45.4,35.8,45.4,35.8,45.5,35.8"/>
		<path class="st1" d="M44,36.9c0.6,0.4,1.3,0.7,2.1,0.7c0,0-0.1-0.1-0.1-0.2c-0.1-0.1-0.1-0.3-0.1-0.4c0-0.4-0.1-0.8-0.5-1
			c-0.4-0.2-0.6,0.2-0.9,0.3C44.3,36.5,44.2,36.7,44,36.9"/>
		<path class="st2" d="M40.6,32.9c0.4,0.3,0.7,0.7,0.9,1.1c0.4-0.1,0.7-0.3,1-0.5c0-0.4,0.1-0.8,0.3-1.2l-0.3-0.2
			c-0.5,0.2-0.7,0.1-1.2,0.2C40.9,32.5,40.7,32.7,40.6,32.9"/>
		<path class="st1" d="M43.3,32.9l-0.5-0.5c-0.2,0.4-0.3,0.8-0.3,1.2C42.8,33.4,43.1,33.2,43.3,32.9"/>
		<path class="st0" d="M41.5,34.1c-0.2-0.4-0.5-0.8-0.9-1.1c-0.1,0.3-0.1,0.6-0.2,0.9c0,0.1,0,0.2,0,0.4h0
			C40.8,34.2,41.2,34.2,41.5,34.1"/>
		<path class="st0" d="M42.8,37.9c-0.6,0-1.1,0.3-1.4,0.7c0,0.1,0,0.2,0.1,0.3c0,0.2,0.2,0.2,0.4,0.2c0,0,0,0,0.1,0
			c0.2-0.2,0.6-0.5,0.8-0.5c0.2,0,0.4,0,0.5,0.1c0-0.2,0.1-0.4,0.2-0.6C43.2,37.9,43,37.9,42.8,37.9"/>
		<path class="st0" d="M43.2,39L43.2,39L43.2,39c-0.1,0.1-0.2,0.1-0.2,0.1c0,0,0,0-0.1,0c0,0-0.1,0-0.1,0c0,0,0,0-0.1,0
			c0,0-0.1,0-0.1,0l-0.1,0c-0.1,0-0.1,0-0.2,0c0.1,0.1,0.1,0.2,0.1,0.3c0.1,0.5,0.5,0.7,0.9,0.6c-0.1-0.3-0.1-0.6-0.1-1
			C43.2,39.1,43.2,39.1,43.2,39"/>
		<path class="st1" d="M43.4,38c-0.1,0.2-0.1,0.4-0.2,0.6c0.1,0,0.3,0,0.5-0.1c0,0,0,0.1-0.1,0.1l0,0l0,0l0,0l0,0
			c0,0-0.1,0.1-0.1,0.1l0,0c0,0-0.1,0.1-0.2,0.1c0,0.1,0,0.1,0,0.2c0,0.3,0,0.7,0.1,1c0.1,0,0.1,0,0.2-0.1c0.1,0,0.2,0,0.3,0
			c0.2,0,0.4,0.2,0.5,0.5h0c0.2-0.3,0.3-0.6,0.3-0.9C44.5,38.9,44.1,38.3,43.4,38"/>
		<path class="st0" d="M47.5,38.6c-0.1,0-0.1,0-0.2,0.1c-0.1,0.5-0.4,0.9-0.8,1.3l0,0c0.1,0.2,0.2,0.3,0.3,0.5
			c0.4-0.4,0.8-0.9,1.2-1.4l0.2-0.3C48.1,38.7,47.8,38.6,47.5,38.6C47.5,38.6,47.5,38.6,47.5,38.6"/>
		<path class="st0" d="M46.4,39.7c0.3-0.3,0.6-0.9,0.6-1.1l0-0.1c-0.2-0.1-0.3-0.2-0.4-0.3c0,0-0.1-0.1-0.1-0.1
			c-0.1-0.1-0.2-0.1-0.2-0.2c-0.1,0.3-0.1,0.5-0.1,0.8C46.2,39,46.2,39.3,46.4,39.7"/>
		<path class="st3" d="M20.3,41.2c-0.3,0.5-0.8,1-1.4,1.4c0.1,0.1,0.9-0.1,1.7-0.6c-0.1-0.2-0.2-0.3-0.2-0.5
			C20.3,41.4,20.3,41.3,20.3,41.2"/>
		<path class="st4" d="M22.1,38.3c-0.4-0.4-0.7-0.5-1-0.6c0,0-0.1,0-0.1,0c-0.2,0-0.4-0.1-0.6-0.1c0,0.1-0.1,0.2-0.1,0.3l0,0
			c0.4,0.2,0.9,0.4,1.5,0.4C21.9,38.3,22,38.3,22.1,38.3"/>
		<path class="st5" d="M23.2,37.9c-0.1,0.1-0.2,0.2-0.4,0.3c-0.1,0.1-0.3,0.1-0.5,0.1l0,0l-0.1,0c-0.1,0-0.2,0-0.3,0
			c-0.1,0-0.2,0-0.3,0c-0.5,0-1-0.1-1.5-0.4c0.1,0.1,0.2,0.3,0.2,0.4c0.3,0.6,0.3,1.2,0.1,1.9c0.5,0.2,0.9,0.4,1.3,0.8l0-0.1
			c0,0,0-0.1,0.1-0.1c0.3-0.4,0.5-0.9,0.6-1.5c0-0.1,0.1-0.1,0.1-0.1c0.8-0.1,1.4-0.3,1.9-0.6C24.2,38.5,23.7,38.3,23.2,37.9
			L23.2,37.9z"/>
		<path class="st6" d="M18.6,33.3c0,0.1,0,0.3,0,0.4c0.1,0,0.2,0.1,0.3,0.2c0-0.1,0.1-0.2,0.2-0.3l0,0c0.2-0.3,0.3-0.6,0.4-0.9
			c0-0.1,0-0.2,0.1-0.3c0,0,0-0.1,0-0.1c0-0.2,0-0.3,0-0.5c-0.3,0.2-0.7,0.4-1,0.5C18.5,32.6,18.6,33,18.6,33.3"/>
		<path class="st6" d="M20.8,29.2c0,0.6-0.2,1.2-0.5,1.7c0.1,0.5,0.1,1-0.4,1.7c0.5-0.4,1.2-0.7,1.9-0.7c0.3,0,0.5,0,0.7,0.1
			c0.1-0.2,0.3-0.4,0.5-0.6c-0.8-0.7-1.4-1.5-1.8-2.5c-0.1,0-0.3-0.1-0.4-0.1C20.7,29,20.8,29.1,20.8,29.2"/>
		<path class="st3" d="M24.9,35.2c0,1.2-0.7,2.2-1.6,2.8c0.4,0.3,0.9,0.6,1.4,0.7c2.4-1.3,2.7-4,2.1-5.4C25.3,33,24,32.4,23,31.5
			c-0.2,0.2-0.3,0.4-0.5,0.6C23.9,32.4,24.9,33.7,24.9,35.2"/>
		<path class="st3" d="M17.4,33.5c0.4,0,0.8,0.1,1.2,0.2c0-0.1,0-0.3,0-0.4c0-0.4,0-0.7-0.1-1.1c-0.3,0.1-0.5,0.1-0.8,0.1
			c-1,0-1.9-0.5-2.5-1.2c-0.2,0.1-0.3,0.3-0.5,0.5c0,0.1-0.1,0.1-0.1,0.2c0,0-0.1,0.1-0.1,0.1c0.6,0.3,1,0.9,1,1.6
			c0,0.4-0.1,0.8-0.4,1.1C15.6,33.9,16.4,33.5,17.4,33.5"/>
		<path class="st5" d="M18.4,32.3c0.4-0.1,0.7-0.3,1-0.5c0-0.2-0.1-0.5-0.2-0.7c-0.1-0.2-0.2-0.3-0.3-0.5l0,0
			c-0.4-0.5-0.9-0.8-1.5-0.9c-0.2,0-0.4,0-0.6,0.1c0,0-0.1,0-0.1,0.1C17.6,30.5,18.2,31.3,18.4,32.3"/>
		<path class="st5" d="M20.7,28.9c-0.2,0-0.4,0-0.6,0c-0.6,0-1.2,0.1-1.8,0.3c0,0,0.9,0.3,1.4,1c0,0.1,0.1,0.1,0.1,0.2l0,0
			c0.1,0.2,0.2,0.3,0.2,0.5c0.3-0.5,0.5-1.1,0.5-1.7C20.8,29.1,20.7,29,20.7,28.9"/>
		<path class="st4" d="M16.3,30.9c0.2-0.2,0.5-0.2,0.7,0c0.2,0.2,0.2,0.5,0,0.7c-0.2,0.2-0.5,0.2-0.7,0
			C16.1,31.4,16.1,31.1,16.3,30.9 M17.6,32.4c0.3,0,0.6,0,0.8-0.1c-0.2-1-0.8-1.8-1.6-2.4c-0.1,0.1-0.2,0.1-0.3,0.2
			c-0.1,0.1-0.2,0.1-0.3,0.2c-0.4,0.3-0.8,0.6-1.1,0.9C15.7,31.9,16.6,32.4,17.6,32.4"/>
		<path class="st6" d="M18.9,33.9c-0.1-0.1-0.2-0.1-0.3-0.2c-0.1,0.8-0.4,1.6-0.9,2.2c0.4,0.1,0.7,0.1,1.1,0
			c-0.1-0.3-0.1-0.6-0.1-0.9C18.6,34.7,18.7,34.3,18.9,33.9"/>
		<path class="st5" d="M17.4,33.5c-0.9,0-1.8,0.4-2.4,1.1l0,0c0.6,0.5,1.1,0.8,1.6,1c0.4,0.2,0.7,0.3,1.1,0.3
			c0.5-0.6,0.8-1.4,0.9-2.2C18.2,33.6,17.8,33.5,17.4,33.5"/>
		<path class="st6" d="M20.3,41.2L20.3,41.2c0,0.1,0.1,0.2,0.1,0.3c0.1,0.2,0.1,0.3,0.2,0.5l0,0l0,0c0.5-0.3,1-0.7,1.3-1
			c-0.3-0.3-0.8-0.6-1.3-0.8C20.6,40.5,20.5,40.9,20.3,41.2"/>
		<path class="st6" d="M20.3,41.2C20.3,41.2,20.3,41.2,20.3,41.2c0,0.1,0.1,0.2,0.1,0.3c0.1,0.2,0.1,0.3,0.2,0.5l0,0
			c-0.1-0.2-0.2-0.3-0.2-0.5C20.3,41.4,20.3,41.3,20.3,41.2"/>
		<path class="st6" d="M20.3,41.2L20.3,41.2C20.3,41.2,20.3,41.2,20.3,41.2L20.3,41.2 M20.3,41.2L20.3,41.2c0,0.1,0.1,0.2,0.1,0.3
			c0.1,0.2,0.1,0.3,0.2,0.5c-0.1-0.2-0.2-0.3-0.2-0.5C20.3,41.4,20.3,41.3,20.3,41.2"/>
		<path class="st4" d="M22.5,32.1C22.3,32,22,32,21.8,32c-0.7,0-1.4,0.2-1.9,0.7c-0.1,0.1-0.1,0.2-0.2,0.2c0,0-0.1,0.1-0.1,0.1
			c-0.2,0.2-0.3,0.4-0.5,0.6c-0.1,0.1-0.1,0.2-0.2,0.3c0.7,0.4,1.2,1,1.5,1.7c0.4-0.1,1.1-0.4,1.1-0.4s0.1,0,0.3-0.1
			c0-0.2,0-0.4,0-0.6C21.7,33.7,22,32.8,22.5,32.1"/>
		<path class="st4" d="M22.3,38.2c-0.3-0.4-0.6-0.7-0.9-0.9c-0.1-0.1-0.2-0.1-0.3-0.1c-0.2-0.1-0.4-0.1-0.5-0.2c0,0.1,0,0.2,0,0.2
			c0.2,0,0.4,0.1,0.6,0.2c0,0,0.1,0,0.1,0.1c0.4,0.2,0.7,0.5,0.9,0.9C22.1,38.3,22.2,38.3,22.3,38.2C22.3,38.3,22.3,38.2,22.3,38.2"
			/>
		<path class="st5" d="M24.9,35.2c0-1.5-1-2.7-2.4-3.1c-0.5,0.7-0.8,1.6-0.8,2.5c0,0.2,0,0.4,0,0.6c0.5-0.1,1.5-0.2,1.9,0.5
			c0.4,0.7,0.2,1.7-0.4,2.2l0.1,0C24.3,37.4,24.9,36.3,24.9,35.2"/>
		<path class="st5" d="M18.9,33.9c-0.2,0.4-0.3,0.8-0.3,1.2c0,0.3,0,0.6,0.1,0.9c0.3,0,0.6-0.1,0.8-0.1c0.1,0,0.3-0.1,0.4-0.1
			c0.1,0,0.2-0.1,0.3-0.1c0,0,0.1,0,0.1,0C20.1,34.9,19.6,34.3,18.9,33.9"/>
		<path class="st5" d="M19.4,36.9c0.1,0,0.2,0.2,0.2,0.3c0.3,0,0.6,0,0.8,0.1c0-0.1,0-0.2,0-0.2C20.2,36.9,19.8,36.9,19.4,36.9"/>
		<path class="st5" d="M20,37.6c0.1,0.1,0.2,0.2,0.3,0.3c0-0.1,0.1-0.2,0.1-0.3C20.3,37.6,20.1,37.6,20,37.6"/>
		<path class="st2" d="M39.6,31.7c-0.1-0.8-0.2-1.7-0.3-2.3l-0.7-0.6l0.3,2.4C39.2,31.3,39.4,31.5,39.6,31.7"/>
		<path class="st2" d="M29.8,34.5l0.2,0.5l0.9-0.4c-0.1-0.1-0.3-0.3-0.4-0.4L29.8,34.5z"/>
		<path class="st1" d="M35.8,30.3c0-0.1,0-0.1,0-0.2c-0.1,0.1-0.2,0.2-0.2,0.3c0,0,0.1,0,0.1,0C35.7,30.3,35.8,30.3,35.8,30.3"/>
		<rect x="31.3" y="33.8" transform="matrix(0.9137 -0.4065 0.4065 0.9137 -11.0835 15.6667)" class="st5" width="0" height="0.2"/>
		<path class="st1" d="M38,29.5c0.1,0,0.3,0,0.3,0.2c0,0.1,0,0.3-0.2,0.3c-0.1,0-0.3,0-0.3-0.2C37.8,29.7,37.9,29.5,38,29.5
			 M38.6,30.9c0.1,0.1,0.3,0.1,0.4,0.2l-0.3-2.4l-1-0.9L37,28.7c0.1,0,0.1,0.1,0.1,0.1c0,0.1,0,0.3-0.2,0.3c-0.1,0-0.2,0-0.3-0.1
			l-0.1,0.1c-0.1,0.2-0.3,0.4-0.4,0.5l0.1,0.6C37.1,30.3,37.9,30.5,38.6,30.9"/>
		<path class="st1" d="M38.9,31.2l0.3,2.5c0,0.2-0.1,0.5-0.4,0.5l0,0c0.5-0.1,1-0.3,0.9-1.5c0-0.3,0-0.6-0.1-0.9
			C39.4,31.5,39.2,31.3,38.9,31.2L38.9,31.2z"/>
		<path class="st1" d="M31.4,34.9l-0.1,0.1c0,0.3,0,0.5,0,0.8c0,0.1,0,0.2,0,0.3l0.6-0.3l0.3-0.1c0,0,0.1,0,0.1-0.1
			c-0.2-0.1-0.3-0.2-0.5-0.3C31.7,35.1,31.5,35,31.4,34.9"/>
		<path class="st7" d="M36.2,33.7c-0.1-1.1-0.2-2.1-0.4-3.2c0-0.1,0-0.2,0-0.2c0,0-0.1,0-0.1,0c0,0-0.1,0-0.1,0
			c-0.1,0.1-0.2,0.2-0.4,0.4c0.2,1.2,0.4,2.4,0.5,3.6C35.9,34.1,36,33.9,36.2,33.7"/>
		<path class="st7" d="M35.2,33.8c-0.2-0.9-0.3-1.7-0.5-2.6c0,0,0-0.1,0-0.1c-0.2,0.2-0.4,0.3-0.6,0.5c0.2,1,0.4,2,0.7,2.9
			C35,34.3,35.1,34,35.2,33.8"/>
		<path class="st7" d="M34.3,34c-0.2-0.7-0.4-1.4-0.6-2.1c-0.2,0.1-0.4,0.2-0.6,0.4c0.3,0.8,0.5,1.7,0.8,2.5
			C34.1,34.5,34.2,34.3,34.3,34"/>
		<path class="st7" d="M33.1,35.1c0.1-0.2,0.2-0.5,0.3-0.7c-0.2-0.6-0.4-1.2-0.6-1.8c-0.2,0.1-0.4,0.2-0.6,0.3
			c0.1,0.1,0.1,0.3,0.2,0.4C32.6,33.8,32.8,34.4,33.1,35.1"/>
		<path class="st7" d="M31.4,34L31.4,34c0,0.1-0.1,0.2-0.1,0.4l0.2-0.1l0.2,0.4l-0.3,0.1c0.2,0.1,0.3,0.3,0.5,0.4
			c0.2,0.1,0.3,0.2,0.5,0.3c0.2-0.2,0.3-0.5,0.2-0.7l-0.5-1L31.8,33C31.6,33.3,31.5,33.7,31.4,34L31.4,34L31.4,34z"/>
		<path class="st7" d="M38.4,32.3c-0.1,0-0.3,0-0.3-0.2c0-0.1,0-0.3,0.2-0.3c0.1,0,0.3,0,0.3,0.2C38.6,32.2,38.5,32.3,38.4,32.3
			 M37.5,33.5c-0.1,0-0.3,0-0.3-0.2c0-0.1,0-0.3,0.2-0.3c0.1,0,0.3,0,0.3,0.2C37.7,33.4,37.6,33.5,37.5,33.5 M36.8,31.1
			c0-0.1,0-0.3,0.2-0.3c0.1,0,0.3,0,0.3,0.2c0,0.1,0,0.3-0.2,0.3C37,31.3,36.9,31.3,36.8,31.1 M39.2,33.6l-0.3-2.5l0,0
			c-0.1-0.1-0.3-0.2-0.4-0.2c-0.7-0.4-1.5-0.6-2.3-0.6l0,0.2l0.4,3.3c0,0.3,0.3,0.6,0.7,0.5l1.5-0.2l0,0
			C39.1,34.1,39.3,33.9,39.2,33.6"/>
		<path class="st2" d="M31.2,34.9l-2,0.9l-0.7-1.6c-0.1,0-0.2,0-0.3,0.1l1,2.2c0.1,0.2,0.4,0.3,0.6,0.2l1.6-0.7c0-0.1,0-0.2,0-0.3
			C31.2,35.5,31.2,35.2,31.2,34.9"/>
		<path class="st2" d="M29.6,33.8l0.1,0.2l0.6-0.3c-0.1-0.1-0.1-0.1-0.2-0.2C29.9,33.6,29.7,33.8,29.6,33.8"/>
		<path class="st1" d="M30.2,33.8l0.9-0.4l0.2,0.4l0,0l0.1,0.2c0.1-0.4,0.2-0.7,0.4-1l0-0.1c-0.4,0.2-0.9,0.3-1.3,0.4
			c-0.1,0.1-0.2,0.2-0.3,0.2C30.1,33.6,30.2,33.7,30.2,33.8"/>
		<path class="st1" d="M31.3,33.8l-0.7,0.3c0.1,0.1,0.3,0.3,0.4,0.4l0.3-0.1c0-0.1,0-0.2,0.1-0.4L31.3,33.8z"/>
		<path class="st7" d="M28.2,34.3c0.1,0,0.2,0,0.3-0.1l-0.1-0.1l-0.3-0.6c-0.1,0-0.2,0-0.4,0L28.2,34.3L28.2,34.3z"/>
		<path class="st7" d="M29.5,33.7l0.1,0.2c0.2-0.1,0.4-0.2,0.5-0.3c0-0.1-0.1-0.1-0.1-0.2c-0.1,0-0.2,0-0.3,0l-0.3,0L29.5,33.7z"/>
		<path class="st2" d="M30.4,33.3c-0.1,0-0.3,0.1-0.4,0.1c0,0.1,0.1,0.1,0.1,0.2C30.2,33.5,30.3,33.4,30.4,33.3"/>
		<path class="st8" d="M23.8,10.9c0.3,0.2,0.6,0.5,0.9,0.7c0.2-0.2,0.3-0.3,0.5-0.4h0c-0.1-0.1-0.2-0.3-0.2-0.5
			c-0.1-0.3-0.2-0.6-0.4-0.9C24.5,10.3,24.2,10.6,23.8,10.9"/>
		<path class="st9" d="M23.7,15.3c-0.4,0-0.9-0.2-1.1-0.6c-0.4-0.6-0.2-1.4,0.4-1.9c0.3-0.2,0.7-0.3,1-0.2c0.2-0.3,0.4-0.7,0.7-0.9
			c-0.3-0.3-0.5-0.5-0.9-0.7c-0.1,0.1-0.3,0.2-0.4,0.3c-1.3,0.8-2.9,0.8-4,0c-0.3,0.6-0.3,1.2,0.2,1.9c0.2,0.3,0.5,0.6,0.8,0.8
			c0.4,0.3,0.6,0.7,0.5,1.2c-0.1,1,0.1,2,0.6,2.8c0.2,0.2,0.3,0.4,0.5,0.6c0.6-0.8,1.4-1.5,2.3-2c0-0.1-0.1-0.1-0.1-0.2
			C24,16,23.8,15.6,23.7,15.3"/>
		<path class="st10" d="M28.3,13.4c-0.6-0.9-1.4-1.4-2.3-1.7c-0.3-0.1-0.5-0.2-0.7-0.5h0c-0.2,0.1-0.4,0.3-0.5,0.4
			c0.2,0.2,0.3,0.4,0.4,0.6c0.7,1.1,0.9,2.4,0.7,3.6c0.8-0.3,1.8-0.4,2.8-0.4c0.1,0,0.1,0,0.2,0C28.9,14.8,28.7,14.1,28.3,13.4"/>
		<path class="st11" d="M25.1,12.2c-0.1-0.2-0.3-0.4-0.4-0.6c-0.3,0.3-0.5,0.6-0.7,0.9c0.3,0.1,0.6,0.3,0.9,0.6
			c0.4,0.6,0.2,1.4-0.4,1.9c-0.2,0.2-0.5,0.2-0.7,0.2c0.1,0.4,0.3,0.7,0.5,1c0,0.1,0.1,0.1,0.1,0.2c0.5-0.3,1-0.5,1.5-0.6
			C26.1,14.7,25.9,13.4,25.1,12.2"/>
		<path class="st11" d="M23.8,10.9c0.3-0.3,0.6-0.7,0.8-1.1c0,0,0-0.1-0.1-0.1c-0.8-1.2-1.8-1-3-0.4l-1.7-2.5
			c-0.1,0.6-0.4,1.1-0.7,1.5l1.2,1.8C21.5,10,22.8,10.2,23.8,10.9"/>
		<path class="st10" d="M23.4,11.2c0.1-0.1,0.3-0.2,0.4-0.3c-1-0.7-2.3-1-3.5-0.7l0,0c-0.4,0.3-0.7,0.7-0.9,1.1
			C20.6,12,22.2,12.1,23.4,11.2"/>
		<path class="st12" d="M18.3,4.5l0.4-0.3l-0.8-1.4l-0.1-0.2c-0.1,0-0.1,0-0.2,0.1c-0.8,0.3-1.6,0.7-2.3,1l1.4,1.8l0.4-0.3l0.9,1.4
			c0.2-0.5,0.5-0.9,0.9-1.2L18.3,4.5z"/>
		<path class="st10" d="M19,5.5c-0.4,0.3-0.7,0.8-0.9,1.2l1.1,1.7c0.4-0.5,0.6-1,0.7-1.5L19,5.5z"/>
		<path class="st13" d="M5.8,18.4c0-0.1,0-0.1,0-0.2c0-0.1,0-0.1,0-0.2c0-0.5,0-1,0-1.2c0-0.1-0.1-0.2-0.1-0.3
			c0-0.1-0.1-0.2-0.2-0.3C5.3,16.1,5.2,16,5,16c-0.1,0-0.3,0.1-0.3,0.3c0,0.1-0.1,0.2-0.1,0.3c0,0.1,0,0.2,0,0.4
			c0,0.3,0.3,0.8,0.6,1.2c0,0,0.1,0.1,0.1,0.2c0,0,0.1,0.1,0.1,0.1c0.1,0.1,0.1,0.2,0.2,0.2c0.1,0.1,0.2,0.2,0.2,0.2s0-0.1,0-0.3
			C5.8,18.6,5.8,18.5,5.8,18.4"/>
		<path class="st13" d="M3.1,20.4L3.1,20.4c0,0.1,0.1,0,0.2,0C3.2,20.4,3.2,20.4,3.1,20.4"/>
		<path class="st14" d="M8.2,18.3c0-0.1,0.1-0.2,0.1-0.3c0-0.1,0-0.1,0.1-0.2c0-0.1,0-0.1,0.1-0.2c0,0,0-0.1,0-0.1
			c-0.2-0.5-0.3-1.1-0.3-1.7c0-0.1,0-0.2,0-0.2c-0.1,0-0.2-0.1-0.3-0.1c-0.1,0-0.3,0.2-0.3,0.3c0,0.1-0.1,0.2-0.1,0.3
			c0,0.1,0,0.2,0,0.3c0,0.2,0.1,0.5,0.2,0.8c0,0.1,0.1,0.2,0.1,0.3c0,0.1,0,0.1,0.1,0.2C8,17.9,8,18,8,18c0,0.1,0.1,0.2,0.1,0.3
			c0,0.2,0,0.3,0,0.3S8.2,18.5,8.2,18.3"/>
		<path class="st14" d="M7.6,18.9c0-0.2-0.1-0.5-0.2-0.7c-0.1-0.3-0.2-0.5-0.3-0.7c-0.2,0.4-0.4,0.8-0.7,1.1c0,0.2,0,0.3,0.1,0.5
			c0,0.1,0.1,0.3,0.1,0.4c0.1,0.4,0.2,0.9,0.4,1.4C7,21,7,21.1,7,21.2c0.2,0.7,0.4,1.3,0.6,1.7c0,0,0.1,0,0.1,0c0-0.3,0-0.8,0-1.4
			l0-1.3C7.7,19.6,7.6,19.2,7.6,18.9"/>
		<path class="st14" d="M3.9,19.5c0,0,0.1,0.1,0.1,0.1c0,0,0.1,0.1,0.1,0.1c0,0,0.1,0.1,0.1,0.1c0.2,0.1,0.4,0.3,0.6,0.5
			c0,0,0.1,0.1,0.1,0.1c0.2,0.1,0.4,0.3,0.5,0.5c0.4,0.4,0.7,0.8,1,1.1c0.1,0.1,0.2,0.2,0.2,0.3l0,0.1c0.1,0.1,0.1,0.1,0.1,0.1
			s0-0.1,0-0.2c0-0.1,0-0.1-0.1-0.2c0-0.1,0-0.1-0.1-0.2c-0.1-0.3-0.3-0.8-0.5-1.2c0-0.1-0.1-0.1-0.1-0.2C6,20.3,6,20.2,5.9,20l0,0
			c-0.1-0.1-0.2-0.2-0.2-0.4c-0.1-0.1-0.2-0.2-0.3-0.4C4.9,19.5,4.4,19.6,3.9,19.5L3.9,19.5z"/>
		<path class="st14" d="M9.5,19.4c0-0.1,0.1-0.1,0.2-0.2c-0.3-0.3-0.6-0.6-0.8-1c0,0,0,0.1,0,0.1c0,0.1-0.1,0.3-0.2,0.4
			c0,0.1-0.1,0.3-0.1,0.4c0,0.1-0.1,0.2-0.1,0.3c0,0,0,0.1,0,0.1c0,0.1-0.1,0.3-0.1,0.4l0,0c-0.1,0.3-0.1,0.6-0.1,0.9
			C8.4,20.4,8.9,19.8,9.5,19.4"/>
		<path class="st14" d="M11,25.7c-0.2,0-0.5,0-0.7-0.1c0,0.3,0.1,0.5,0.1,0.8c0,0.2-0.1,0.5-0.1,0.7c0.3,0,0.6-0.1,0.8-0.2
			c0.1,0,0.2-0.1,0.2-0.1c0.6-0.3,0.9-0.7,1.2-1.1c0.1-0.1,0.1-0.2,0.2-0.3C12.1,25.6,11.6,25.7,11,25.7"/>
		<path class="st8" d="M4.4,21.7c0.4,0,0.8,0.1,1.1,0.1c0.1,0,0.3,0.1,0.3,0.1c0.1,0,0.1,0,0.1,0s0,0-0.1-0.1
			c-0.1-0.1-0.2-0.1-0.3-0.2c-0.2-0.2-0.6-0.4-1-0.6c-0.3-0.1-0.5-0.3-0.8-0.4c-0.1-0.1-0.3-0.1-0.4-0.2c0,0,0,0-0.1,0
			c-0.1,0-0.1,0-0.2,0C3,20.9,3,21.3,2.9,21.7c0.1,0,0.1,0,0.2,0C3.5,21.7,4,21.7,4.4,21.7"/>
		<path class="st8" d="M3.7,23.4c0.1-0.1,0.3-0.1,0.4-0.2c0.3-0.1,0.6-0.3,1-0.4c0.3-0.1,0.7-0.2,0.9-0.2c0.1,0,0.2,0,0.3,0
			c0.1,0,0.1,0,0.1,0s0,0-0.1,0c-0.1,0-0.2-0.1-0.3-0.1c-0.2-0.1-0.6-0.2-1-0.2c-0.4,0-0.8,0-1.1,0c-0.2,0-0.3,0-0.5,0.1
			c-0.1,0-0.3,0.1-0.4,0.1c0,0-0.1,0-0.1,0.1c0,0.4,0,0.7-0.1,1.1c0.2,0,0.4-0.1,0.6-0.2C3.5,23.5,3.6,23.4,3.7,23.4"/>
		<path class="st8" d="M3.1,26L3.1,26c0.2,0.4,0.4,0.7,0.7,1c-0.1-0.3-0.1-0.6-0.1-0.9c0.1-1.1,0.7-2.1,1.5-2.7
			c-0.4,0.1-0.8,0.2-1.2,0.4c-0.7,0.4-1.1,0.4-1.2,0.4c0,0.1,0,0.2,0,0.2c0,0.3,0,0.5,0,0.8c0,0,0,0.1,0,0.1C2.9,25.6,3,25.8,3.1,26
			"/>
		<path class="st13" d="M7.7,23.1c0,0,0-0.1,0-0.2c0,0-0.1,0-0.1,0C7.6,23,7.7,23.1,7.7,23.1"/>
		<path class="st15" d="M3.7,26c0,0.3,0,0.6,0.1,0.9C3.8,27,3.9,27.1,4,27.1c0.7-0.1,1.3-0.4,1.7-0.9c0,0-0.1,0-0.1,0h0
			c0,0-0.1,0-0.1,0c0,0,0,0-0.1,0c-0.8-0.1-1-0.9-1-0.9c1-0.4,1.6-0.2,2,0l0,0c0.2-0.4,0.3-0.9,0.4-1.3c0-0.2,0-0.4,0-0.7
			c-0.4-0.1-0.9-0.1-1.5,0C4.4,23.9,3.8,24.9,3.7,26"/>
		<path class="st8" d="M10.4,19.7c-0.2,0.2-0.3,0.3-0.5,0.5c-0.3,0.3-0.6,0.6-0.7,0.9l0,0c-0.1,0.1-0.2,0.2-0.2,0.3
			c0,0.1-0.1,0.1-0.1,0.1s0,0,0.1-0.1c0.1,0,0.2-0.1,0.3-0.2c0,0,0.1,0,0.1,0c0.2-0.1,0.6-0.3,0.9-0.4c0.4-0.2,0.8-0.3,1.2-0.4
			c0.2-0.1,0.4-0.1,0.5-0.1c0.1,0,0.1,0,0.2,0h0C11.5,20.2,10.9,20,10.4,19.7"/>
		<path class="st8" d="M8.9,20.4c0.2-0.3,0.4-0.6,0.6-0.9c-0.6,0.4-1.1,0.9-1.4,1.6c0,0.2,0,0.4,0,0.6c0,0.1,0,0.3,0,0.4
			c0,0,0,0.1,0,0.1c0,0.1,0,0.2,0,0.2s0-0.1,0.1-0.2l0,0c0-0.1,0.1-0.3,0.2-0.4c0.1-0.3,0.3-0.6,0.4-1C8.8,20.6,8.9,20.5,8.9,20.4"
			/>
		<path class="st8" d="M10,24.5c0.4-0.2,0.8-0.3,1.5-0.2c0,0,0,0.8-0.7,1.2c-0.1,0-0.1,0-0.2,0.1c-0.1,0-0.1,0-0.2,0l0,0
			c0.2,0.1,0.4,0.1,0.7,0.1c0.6,0,1.1-0.1,1.6-0.3c0.1-0.3,0.2-0.6,0.3-0.9c0-0.2,0-0.4,0-0.6c0-0.7-0.2-1.2-0.2-1.2s-0.1,0.3-1.4,0
			c-1.2-0.2-2.1,0-2.7,0.3c-0.1,0-0.1,0.1-0.2,0.1C9.1,23.4,9.6,23.9,10,24.5"/>
		<path class="st8" d="M13,22c0.1-0.1,0.1-0.1,0.1-0.2c0-0.1,0-0.1-0.1-0.2c0,0-0.1-0.1-0.1-0.1l0,0c0,0-0.1-0.1-0.1-0.1
			c-0.2-0.1-0.6-0.2-1-0.3c-0.1,0-0.2,0-0.4,0c-0.2,0-0.3,0-0.5,0.1c-0.3,0.1-0.7,0.2-1.1,0.3l0,0C9.5,21.7,9.2,21.9,9,22
			c-0.1,0.1-0.2,0.1-0.2,0.2c-0.1,0-0.1,0.1-0.1,0.1s0,0,0.1,0c0.1,0,0.2,0,0.3-0.1c0.2,0,0.6-0.1,0.9-0.1c0.3,0,0.7,0,1,0
			c0.2,0,0.3,0,0.4,0.1c0.1,0,0.2,0,0.3,0c0.4,0,0.7,0,0.9-0.1c0.1,0,0.1,0,0.2-0.1C13,22.1,13,22,13,22"/>
		<path class="st14" d="M9.3,25.1L9.3,25.1c0.2-0.2,0.4-0.4,0.7-0.5c-0.4-0.6-0.9-1.1-1.6-1.4c-0.2,0.1-0.3,0.2-0.4,0.2
			C8.2,24.1,8.7,24.7,9.3,25.1"/>
		<path class="st13" d="M6.7,17.3c-0.3,0-0.4,0.6-0.4,1.3c0.3-0.3,0.6-0.7,0.7-1.1C7,17.4,6.9,17.3,6.7,17.3"/>
		<path class="st13" d="M3.5,19.3c0.1,0,0.2,0.1,0.2,0.2c0,0,0.1,0.1,0.1,0.1l0,0c0.5,0,1-0.1,1.5-0.3l0,0c-0.1-0.1-0.2-0.2-0.3-0.3
			c-0.4-0.4-0.7-0.8-1-1c-0.1-0.1-0.3-0.2-0.4-0.2c-0.1,0.5-0.3,1-0.4,1.5L3.5,19.3C3.4,19.2,3.4,19.3,3.5,19.3"/>
		<path class="st13" d="M7.1,15.7c0-0.2-0.1-0.4-0.2-0.5c-0.1-0.2-0.3-0.4-0.4-0.4c-0.1,0-0.1,0-0.2,0c-0.3,0-0.5,0.6-0.4,1.2
			c0.1,0.6,0.4,1,0.7,1C7,16.8,7.2,16.3,7.1,15.7"/>
		<path class="st15" d="M8.5,17.6c0.1-0.4,0.2-0.9,0.2-1.2c0-0.1,0-0.2-0.1-0.4c0,0,0-0.1-0.1-0.1c0,0-0.1-0.1-0.1-0.1
			c-0.1-0.1-0.1-0.1-0.2-0.1c0,0.1,0,0.2,0,0.2C8.2,16.5,8.3,17.1,8.5,17.6"/>
		<path class="st15" d="M13.5,18.7c-0.1-0.1-0.2-0.1-0.4-0.1c-0.3,0-0.8,0-1.2,0.2c-0.1,0-0.2,0.1-0.4,0.2l0,0
			c0.7,0,1.3,0.3,1.8,0.7c0,0,0.1,0,0.1-0.1c0.1,0,0.1-0.1,0.2-0.2c0,0,0.1-0.1,0.1-0.2c0.1-0.1,0.1-0.2,0.1-0.3
			C13.6,18.9,13.6,18.8,13.5,18.7"/>
		<path class="st15" d="M9.7,19.2c0.1-0.1,0.1-0.2,0.2-0.2c0,0,0,0,0-0.1c0,0,0-0.1,0.1-0.1c0,0,0.1-0.1,0.1-0.1
			c0.1-0.1,0.1-0.2,0.2-0.3c0.1-0.1,0.1-0.2,0.2-0.2c0,0,0.1-0.1,0.1-0.1c0,0,0-0.1,0.1-0.1c0-0.1,0.1-0.1,0.1-0.2
			c0-0.1,0.1-0.1,0.1-0.2c0.1-0.1,0.1-0.2,0.2-0.3c0.1-0.2,0.2-0.4,0.3-0.5c0-0.1,0.1-0.2,0.1-0.2c0-0.1,0.1-0.1,0.1-0.2
			c0-0.1,0-0.2,0-0.3C11.5,16,11.4,16,11.3,16c-0.1,0-0.2,0-0.2,0c-0.1,0-0.2,0.1-0.3,0.1c-0.1,0-0.1,0-0.2,0.1
			c-0.1,0-0.1,0.1-0.2,0.1c-0.1,0.1-0.2,0.1-0.3,0.2c-0.2,0.2-0.4,0.4-0.6,0.7c-0.2,0.2-0.4,0.6-0.6,1.1C9,18.6,9.3,19,9.7,19.2"/>
		<path class="st15" d="M10.9,18.5c-0.1,0.2-0.2,0.2-0.2,0.2s0.1,0,0.3-0.1c0.2-0.1,0.4-0.2,0.6-0.2c0.2-0.1,0.5-0.2,0.7-0.2
			c0.1,0,0.2-0.1,0.3-0.1c0.1,0,0.2-0.1,0.2-0.1c0.1,0,0.1-0.1,0.2-0.1c0,0,0.1-0.1,0.1-0.1c0.1-0.1,0.2-0.1,0.2-0.2
			c0,0,0.1-0.1,0.1-0.1c0,0,0-0.1,0.1-0.1c0-0.1,0-0.1,0-0.2c0-0.1,0-0.1-0.1-0.2c-0.1-0.1-0.2-0.1-0.3-0.1c-0.2,0-0.5,0-0.8,0.1
			c-0.1,0.1-0.3,0.2-0.5,0.4c-0.2,0.2-0.4,0.4-0.6,0.6C11.1,18.2,11,18.4,10.9,18.5"/>
		<path class="st15" d="M11.4,19c-0.1,0-0.1,0.1-0.2,0.1c-0.1,0.1-0.2,0.1-0.3,0.2c-0.2,0.1-0.4,0.3-0.5,0.4
			c0.5,0.3,1.1,0.4,1.7,0.5h0c0.1,0,0.2,0,0.2-0.1c0.1,0,0.2-0.1,0.3-0.1c0.1,0,0.2-0.1,0.3-0.1c0,0,0,0,0.1,0
			c0.1-0.1,0.2-0.1,0.3-0.2C12.7,19.3,12.1,19,11.4,19L11.4,19z"/>
		<path class="st13" d="M6.8,24c0,0.5-0.2,0.9-0.4,1.3C6.8,25.5,7,25.8,7,25.8s-0.5,0.3-1,0.4h0c-0.1,0-0.2,0-0.3,0
			C5.2,26.7,4.6,27,4,27.1c0.3,0.2,0.6,0.4,1,0.5c0.1,0,0.2,0.1,0.3,0.1c0,0,0.1,0,0.4,0C6,26.8,6.9,26.1,8,26.2
			c0.7,0,1.3,0.4,1.7,0.9c0.1,0,0.2,0,0.3,0c0.1,0,0.2,0,0.3,0c0.1-0.2,0.1-0.5,0.1-0.7c0-0.3,0-0.5-0.1-0.8l-0.1,0c0,0-0.1,0-0.1,0
			l0,0c-0.6,0-1.1-0.1-1.1-0.1s0.1-0.2,0.2-0.4c-0.6-0.4-1-1-1.3-1.7c-0.2,0.1-0.3,0.2-0.3,0.2s-0.3-0.2-0.9-0.3c0,0-0.1,0-0.1,0
			C6.8,23.5,6.8,23.8,6.8,24"/>
		<path class="st15" d="M8,26.2c-1-0.1-2,0.6-2.3,1.5c0,0,0.1,0,0.1,0c0.2,0,0.5,0,0.8-0.1c0.3-0.1,0.5-0.2,0.8-0.3c0,0,0.1,0,0.1,0
			c0,0,0.5-0.4,0.8-0.4c0.3,0,0.9,0.2,0.9,0.2c0,0,0.1,0,0.1,0c0.2,0,0.3,0.1,0.5,0.1C9.3,26.6,8.7,26.2,8,26.2"/>
		<path class="st16" d="M26.6,10c-0.1,0-0.3-0.1-0.3-0.2c0-0.1,0.1-0.2,0.3-0.2c0.1,0,0.3,0.1,0.3,0.2C26.9,9.9,26.8,10,26.6,10
			 M26.3,9c-0.4-0.1-0.5-0.6-0.2-0.5c0.3,0.1,0.1,0.2,0.3,0.2c0.2,0,0-0.2,0.4-0.1C27,8.6,26.7,9.1,26.3,9 M26.4,7.7
			c0.4,0.1,0.5,0.6,0.2,0.5c-0.3-0.1-0.1-0.2-0.3-0.2c-0.2,0,0,0.2-0.4,0.1C25.6,8.1,25.9,7.6,26.4,7.7 M26.5,7
			c0.1,0,0.3,0.1,0.3,0.2c0,0.1-0.1,0.2-0.3,0.2c-0.1,0-0.3-0.1-0.3-0.2C26.2,7.1,26.3,7,26.5,7 M27.9,7.9c-0.1-0.1-0.1-0.2-0.1-0.4
			c0-0.1,0-0.2,0.1-0.3c-0.1,0-0.3,0-0.4,0c-0.1,0-0.1,0-0.2-0.1c0-0.1,0-0.1,0.1-0.2c0,0,0.1,0,0.1,0c-0.5-0.2-1.1-0.3-1.7-0.3
			c-0.1,0-0.2,0-0.3,0c0,0,0,0.1,0,0.1c0,0,0,0,0,0.1c-0.1,0.3-0.2,1.1-0.2,2.1c0,0.4,0.5,1,1,1.5C27.2,9.8,27.8,8.9,27.9,7.9"/>
		<path class="st17" d="M28.8,9.6c-0.1,0-0.1,0.2-0.1,0.2c0.1,0.2,0.5,0.5,0.5,0.6c0,0.1,0.2,0.1,0.2,0.1s0.2,0,0.2-0.1
			c0-0.1,0.5-0.4,0.5-0.6c0,0,0-0.2-0.1-0.2c-0.1,0-0.3,0.2-0.7,0.2C29,9.8,28.9,9.6,28.8,9.6"/>
		<path class="st17" d="M28.5,7c0.1,0.1,0.2,0.1,0.3,0.2c0,0,0,0,0.1,0c0.1,0.1,0.1,0.1,0,0.2l0,0c0,0-0.1,0-0.1,0c0,0,0,0-0.1,0
			l0,0c0,0-0.1-0.1-0.2-0.1c0.2,0.2,0.5,0.3,0.7,0.5c0.1-0.1,0.2-0.2,0.2-0.3c-0.4-0.4-0.8-0.9-1-1.5c-0.2,0.1-0.4,0.1-0.7,0.2
			c0.1,0.2,0.1,0.4,0.2,0.6C28.2,6.9,28.4,7,28.5,7"/>
		<path class="st18" d="M28.5,11.5c-0.1,0-0.2,0-0.3,0c-0.1,0-0.3,0-0.4-0.1c0,0-0.1,0-0.1,0l0,0h0h0c-0.1-0.1-0.3-0.2-0.4-0.3l0,0
			h0h0c-0.1-0.1-0.1-0.2-0.2-0.3c0-0.1-0.1-0.2-0.1-0.3c0-0.6,0.5-1,1.2-1h0h0.1l0-0.1c0-0.1,0.1-0.2,0.1-0.2
			C28.4,9,28.5,9,28.7,8.9c0.1-0.4,0.3-0.7,0.5-1c-0.2-0.2-0.4-0.4-0.7-0.5c0,0,0,0-0.1,0c0,0.1,0,0.1,0,0.2c0,0.3-0.1,0.5-0.3,0.5
			c-0.1,0-0.1,0-0.2-0.1c-0.1,1.1-0.8,1.9-1.6,2.5c0.1,0.1,0.3,0.2,0.4,0.4c0,0.2,0.1,0.4,0.3,0.6c0.3,0.3,0.6,0.5,1.1,0.5
			c0.1,0.1,0.2,0.4,0.8,0.5c-0.1-0.2-0.2-0.5-0.3-0.8C28.5,11.4,28.5,11.5,28.5,11.5"/>
		<path class="st19" d="M31.9,8.8c0,0.1-0.1,0.2-0.3,0.2c-0.1,0-0.3-0.1-0.3-0.2c0-0.1,0.1-0.2,0.3-0.2C31.8,8.5,31.9,8.6,31.9,8.8
			 M32.9,8.3c0.1,0,0.3,0.1,0.3,0.2c0,0.1-0.1,0.2-0.3,0.2c-0.1,0-0.3-0.1-0.3-0.2C32.6,8.5,32.8,8.3,32.9,8.3 M29.4,7.5
			c-0.1,0.1-0.2,0.2-0.2,0.3c0.3,0.3,0.6,0.6,0.8,1c0.4,0,0.7,0.2,0.7,0.5l0,0.1h0.1c0.2,0,0.3,0,0.4,0.1c0.1,0,0.1,0.1,0.2,0.1
			c0.3-0.1,0.6-0.1,1-0.1c0.3,0,0.6,0,0.9,0.1c0.2-0.3,0.3-0.5,0.3-0.7c0-0.4,0-0.8-0.1-1.1c-0.5,0.4-1.2,0.6-2,0.6
			C30.7,8.3,30,8,29.4,7.5"/>
		<path class="st17" d="M29.6,10.7L29.6,10.7l-0.1-0.1h0h-0.1l0,0.1c-0.1,0.2-0.2,0.4-0.4,0.5c-0.1,0.1-0.2,0.2-0.4,0.2
			c0.1,0.3,0.2,0.5,0.3,0.8c0.1,0,0.2,0,0.3,0c0.1-0.5,0.3-1,0.6-1.4C29.6,10.8,29.6,10.8,29.6,10.7"/>
		<path class="st17" d="M29.5,8.8c0.2,0,0.3,0,0.4,0c-0.2-0.4-0.5-0.7-0.8-1c-0.2,0.3-0.4,0.7-0.5,1C28.8,8.8,29.1,8.8,29.5,8.8"/>
		<path class="st18" d="M30.7,4.6c0.2,0.2-0.1,0.2,0,0.3c0.1,0.2,0.2-0.1,0.3,0.1l0,0c0.1,0.2-0.2,0.3-0.4,0.2
			c-0.1,0-0.2-0.1-0.3-0.2C30.1,4.8,30.5,4.4,30.7,4.6 M32.1,4.9C32.1,4.9,32.1,4.8,32.1,4.9c0.3-0.3,0.7-0.8,1.1-0.7
			c0.4,0.1,0.4,0.3,0.3,0.7c-0.1,0.3-0.4,0.7-0.6,0.9l-0.5-0.5L32.1,4.9C32,5,32.1,4.9,32.1,4.9 M29,6.9L29,6.9L29,6.9L29,6.9z
			 M28.4,6.1c0.2,0.6,0.5,1.1,1,1.5c0.8-1.1,2.2-1.8,3.7-1.8c0.1,0,0.2,0,0.3,0c0.2-0.2,0.4-0.5,0.4-0.8c0.1-0.4,0-0.8-0.4-1.1
			c-0.7-0.5-1.4,0-1.8,0.3c-0.2,0.1-0.2,0.2-0.2,0.2s-0.5-0.1-1-0.2C30,5.1,29.3,5.7,28.4,6.1"/>
		<path class="st16" d="M32.7,7.2C32.7,7.2,32.7,7.1,32.7,7.2c-0.3-0.3,0-0.3-0.1-0.4c-0.1-0.2-0.2,0.1-0.3-0.1
			c-0.1-0.2,0.1-0.3,0.4-0.2c0.1,0,0.2,0.1,0.3,0.2C33.1,6.9,32.9,7.2,32.7,7.2 M31.8,7.2c-0.1,0-0.3,0-0.4,0
			c0.1,0.1,0.1,0.2,0.1,0.3c0,0.3-0.1,0.5-0.3,0.5c-0.2,0-0.3-0.2-0.3-0.5c0-0.1,0-0.1,0-0.2c-0.2,0.1-0.3,0.2-0.3,0.2
			c0,0-0.1,0-0.1,0c0,0-0.1,0-0.1,0c-0.1-0.1-0.1-0.1,0-0.2c0,0,0.6-0.5,1.4-0.4c0.1,0,0.1,0.1,0.1,0.2C31.9,7.1,31.9,7.2,31.8,7.2
			 M29.4,7.5C30,8,30.7,8.3,31.6,8.3c0.7,0,1.4-0.2,2-0.6c0-0.1,0-0.2,0-0.3c-0.1-0.4-0.1-0.7-0.1-0.8c0-0.2-0.2-0.5-0.3-0.7
			c0.1-0.1,0.2-0.2,0.3-0.3c-0.1,0-0.2,0-0.3,0C31.6,5.7,30.2,6.4,29.4,7.5"/>
		<path class="st20" d="M25.7,4.2c0.5-0.1,1.1,0.7,1.1,0.8c0.2,0.1,0.3,0.3,0.4,0.4c0.1,0,0.2,0,0.3,0C28,5.5,28.1,6,27.7,5.9
			c-0.3-0.1-0.1-0.2-0.3-0.2c0.1,0.2,0.2,0.3,0.3,0.5c0.2,0,0.5-0.1,0.7-0.2c-0.1-0.3-0.2-0.7-0.2-1c0-0.3,0-0.5,0.1-0.8
			c-0.1,0-0.1,0-0.2,0c-0.3,0.1-0.6,0.1-0.6,0.1s-1.1-1.2-2-0.5c-0.2,0.1-0.3,0.2-0.3,0.3c0.1,0,0.2,0,0.3,0.1
			C25.6,4.2,25.6,4.2,25.7,4.2"/>
		<path class="st12" d="M28.6,4.5c0.1,0,0.3,0.1,0.3,0.2c0,0.1-0.1,0.2-0.3,0.2c-0.1,0-0.3-0.1-0.3-0.2C28.3,4.6,28.5,4.5,28.6,4.5
			 M28.4,6.1c0.9-0.3,1.5-1,1.9-1.9c-0.3,0-0.6-0.1-0.8-0.1c-0.3,0-0.8,0.1-1.1,0.1c-0.1,0.3-0.1,0.5-0.1,0.8
			C28.3,5.4,28.3,5.7,28.4,6.1"/>
		<path class="st12" d="M31.4,9.6c0.1,0.1,0.2,0.2,0.3,0.3c0.1,0.2,0.2,0.4,0.2,0.6c0,0.1,0,0.2-0.1,0.3c0,0.1-0.1,0.2-0.2,0.3l0,0
			l0,0c-0.1,0.1-0.1,0.1-0.2,0.2c0,0-0.1,0.1-0.1,0.1c0,0-0.1,0-0.1,0.1h0c0,0-0.1,0-0.1,0c-0.1,0-0.2,0.1-0.4,0.1
			c-0.1,0-0.1,0-0.2,0c0,0.2,0,0.4-0.1,0.6c0.2-0.1,0.3-0.3,0.4-0.3c0.2,0,0.4,0,0.5-0.1l0,0h0l0,0l0,0c0.4-0.2,0.8-0.5,0.8-1
			c0.4-0.3,0.8-0.7,1.1-1.1c-0.3-0.1-0.6-0.1-0.9-0.1C32.1,9.4,31.7,9.5,31.4,9.6"/>
		<path class="st17" d="M29.9,11.2c-0.1-0.1-0.2-0.2-0.2-0.3c-0.3,0.4-0.5,0.9-0.6,1.4c0.1,0,0.2,0,0.4,0h0c0.1,0,0.2,0,0.3,0
			c0.3,0,0.6-0.1,0.7-0.2c0-0.2,0.1-0.4,0.1-0.6C30.3,11.5,30.1,11.3,29.9,11.2"/>
		<path class="st18" d="M27.6,6.9c0.1,0,0.2,0,0.4,0c0-0.2-0.1-0.4-0.2-0.6c-0.2,0-0.4,0-0.5,0c-0.1,0-0.2,0-0.3,0l0,0
			c0.1,0.1,0.1-0.1,0.4,0.1c0,0,0,0.1,0,0.1c0,0.2-0.4,0.3-0.7,0l0,0c-0.1-0.1-0.1-0.2-0.1-0.3c-0.3,0-0.5-0.1-0.7-0.2l0,0
			c-0.1,0.1-0.2,0.4-0.3,0.6c0.1,0,0.2,0,0.3,0C26.5,6.6,27.1,6.7,27.6,6.9"/>
		<path class="st16" d="M26.6,6.2c0-0.2,0.2-0.4,0.3-0.3c0.2,0.2,0,0.2,0,0.3c0.1,0,0.2,0,0.3,0c0.2,0,0.4,0,0.5,0
			c-0.1-0.2-0.2-0.4-0.3-0.5l0,0c-0.2,0,0,0.2-0.4,0.1c-0.3,0-0.1-0.3,0.2-0.4C27.2,5.2,27,5.1,26.9,5l0,0l-0.8,0.7
			c-0.3-0.3-1-1.2-0.6-1.5c-0.1,0-0.2,0-0.3-0.1c-0.4,0.6,0.2,1.4,0.6,1.8C26.1,6.1,26.3,6.2,26.6,6.2"/>
		<path class="st19" d="M26.1,2.9c0.2-0.2,0.4-0.4,0.5-0.6C26,2.1,25.4,1.6,25,1c-0.3,0-0.6,0.1-0.8,0.1C24.6,1.9,25.3,2.5,26.1,2.9
			"/>
		<path class="st17" d="M27.4,2.6L27.4,2.6c-0.3-0.1-0.5-0.1-0.7-0.2c-0.2,0.2-0.3,0.4-0.5,0.6c0.4,0.2,0.8,0.3,1.2,0.4
			c0.1,0,0.1,0,0.2,0c0-0.3,0.1-0.5,0.1-0.8C27.5,2.6,27.5,2.6,27.4,2.6"/>
		<path class="st17" d="M28.5,0.8c-0.2,0-0.4,0-0.7,0c-0.1,0-0.1,0-0.2,0v1.5C27.9,1.7,28.2,1.3,28.5,0.8"/>
		<path class="st19" d="M26,1.6l0.2,0.2c0.1,0.1,0.2,0.1,0.3,0.1l0.8-1.1c-0.4,0-0.7,0-1.1,0l-0.4,0.6C25.9,1.5,26,1.6,26,1.6"/>
		<path class="st21" d="M29.1,2.5c-0.1,0-0.2,0-0.2,0.1h0c-0.2,0-0.4,0.1-0.7,0.1c-0.2,0-0.4,0-0.6,0c-0.1,0.2-0.1,0.5-0.1,0.8
			c0.2,0,0.4,0,0.6,0c0.7,0,1.3-0.1,1.9-0.4c-0.2-0.2-0.3-0.4-0.4-0.6C29.5,2.4,29.3,2.5,29.1,2.5"/>
		<path class="st21" d="M27.7,2.3c0.3,0,0.6,0,0.9,0V1.1V0.8h0C28.2,1.3,27.9,1.7,27.7,2.3L27.7,2.3L27.7,2.3z"/>
		<path class="st20" d="M30.2,2.1c-0.2,0.1-0.4,0.2-0.6,0.3C29.7,2.6,29.9,2.8,30,3c0.4-0.2,0.8-0.4,1.1-0.7c0.4-0.3,0.7-0.7,1-1.2
			c-0.3,0-0.6-0.1-0.8-0.1C31,1.4,30.6,1.8,30.2,2.1"/>
		<path class="st20" d="M30,1.8c0.2-0.2,0.5-0.3,0.6-0.5l-0.3-0.3c-0.4,0-0.8,0-1.2-0.1l0.6,0.7L30,1.8z"/>
		<path class="st7" d="M36.9,38.8c-0.3,0-0.5-0.1-0.7-0.1c0,0.2-0.1,0.3-0.1,0.5c0.2,0,0.5,0,0.7,0.1C36.8,39.1,36.9,38.9,36.9,38.8
			"/>
		<path class="st7" d="M37.1,38.8c0,0.1-0.1,0.2-0.1,0.4c0,0,0,0.1,0,0.1c0.3,0.1,0.6,0.2,0.9,0.3c0.1-0.2,0.3-0.4,0.5-0.6
			c0-0.1,0-0.2-0.1-0.2c0-0.1,0-0.1-0.1-0.2C37.9,38.7,37.5,38.8,37.1,38.8L37.1,38.8z"/>
		<path class="st7" d="M35.6,38.6c0,0,0-0.1,0-0.1c0,0.2-0.1,0.5-0.1,0.7c0.1,0,0.2,0,0.4,0C35.8,38.9,35.7,38.7,35.6,38.6"/>
		<path class="st7" d="M38.5,38.6L38.5,38.6c0,0.1,0,0.1,0.1,0.2c0.2-0.2,0.4-0.3,0.7-0.4l0,0c0-0.1-0.1-0.2-0.1-0.3
			c-0.2,0.2-0.4,0.3-0.6,0.4C38.5,38.5,38.5,38.6,38.5,38.6"/>
		<path class="st1" d="M36.9,38.8c0-0.1,0-0.1,0.1-0.2c0-0.1,0-0.1,0-0.2c0-0.2-0.1-0.3-0.2-0.5c0-0.1-0.1-0.2-0.1-0.3
			c-0.1,0.1-0.2,0.2-0.3,0.4c-0.1,0.2-0.2,0.4-0.2,0.5c0,0,0,0.1,0,0.1C36.4,38.7,36.6,38.8,36.9,38.8L36.9,38.8L36.9,38.8z"/>
		<path class="st1" d="M38.3,38.6c-0.1-0.3-0.3-0.6-0.5-0.9l0,0c-0.2,0.4-0.5,0.7-0.6,1.1C37.5,38.8,37.9,38.7,38.3,38.6"/>
		<path class="st1" d="M38.6,37.6l-0.3-0.3c-0.1,0.1-0.3,0.2-0.3,0.2c0.1,0.1,0.3,0.4,0.4,0.5C38.4,37.9,38.5,37.7,38.6,37.6"/>
		<path class="st1" d="M37.2,38.1c0.1-0.1,0.3-0.4,0.4-0.6l-0.2-0.2c-0.2,0.1-0.3,0.2-0.4,0.3c0,0,0,0.1,0,0.1
			C37,37.7,37.1,38,37.2,38.1"/>
		<path class="st1" d="M38.5,38.4c0.2-0.1,0.4-0.2,0.6-0.4c-0.1-0.1-0.2-0.3-0.3-0.4c0,0.1-0.1,0.2-0.1,0.2
			C38.6,38.1,38.6,38.2,38.5,38.4L38.5,38.4z"/>
		<path class="st2" d="M38.4,39.9C38.5,39.8,38.5,39.8,38.4,39.9c0-0.3,0-0.5,0-0.7c0,0,0-0.1,0-0.1c0,0,0-0.1,0-0.1
			c-0.2,0.2-0.3,0.4-0.5,0.6C38.1,39.7,38.3,39.8,38.4,39.9"/>
		<path class="st2" d="M42.6,40.8c0-0.4-1-0.7-2.5-0.9c-0.1,0.2-0.1,0.3-0.2,0.5c-0.1,0.2-0.3,0.3-0.5,0.4c0.2,0.3,0.4,0.6,0.6,0.9
			C41.6,41.5,42.6,41.2,42.6,40.8"/>
		<path class="st2" d="M39.3,40.6c0.2-0.1,0.3-0.2,0.5-0.4c0.1-0.1,0.1-0.2,0.2-0.4c0.2-0.5,0.1-1.1,0-1.5c0,0,0,0.1,0,0.1
			c-0.1,0.2-0.2,0.5-0.3,0.8c0,0.1,0,0.1,0,0.2c0,0.1-0.1,0.2-0.1,0.3c-0.1,0.2-0.2,0.4-0.4,0.5C39.2,40.5,39.3,40.5,39.3,40.6"/>
		<path class="st2" d="M38.6,38.9c0.1,0.3,0.1,0.6,0.1,0.9c0,0,0,0.1,0,0.1c0,0,0,0.1,0,0.1c0.1,0.1,0.2,0.2,0.3,0.2
			c0.1-0.1,0.2-0.2,0.3-0.4v0c0,0,0,0,0-0.1c0-0.1,0.1-0.2,0.1-0.3c0-0.1,0-0.1,0-0.2c0-0.2,0-0.5-0.1-0.8c0-0.1,0-0.1-0.1-0.2
			c-0.2,0.1-0.5,0.3-0.7,0.4C38.6,38.8,38.6,38.9,38.6,38.9"/>
		<path class="st2" d="M31.6,41.2c0.1,0.1,0.3,0.1,0.5,0.2c0.1-0.1,0.1-0.2,0.2-0.3L31.6,41.2z"/>
		<path class="st2" d="M33.4,40c-1.4,0.2-2.3,0.5-2.3,0.9c0,0.1,0,0.1,0.1,0.2l1.2-0.1C32.7,40.6,33.1,40.2,33.4,40"/>
		<path class="st0" d="M36.1,39.4c0,0.1,0,0.1,0.1,0.2c0,0,0,0.1,0,0.1l0,0c0.1,0.1,0.1,0.3,0.2,0.4c0.1,0.1,0.2,0.2,0.3,0.3
			c0.1,0.1,0.2,0.1,0.3,0.2c-0.2-0.2-0.3-0.5-0.3-0.9c0-0.1,0-0.2,0-0.2v0c0-0.1,0-0.2,0-0.3c-0.2,0-0.5-0.1-0.7-0.1
			c0,0,0,0.1,0,0.1C36.1,39.3,36.1,39.4,36.1,39.4"/>
		<path class="st0" d="M37,39.3C37,39.3,37,39.3,37,39.3L37,39.3c0,0.2,0,0.2,0,0.3c0,0.1,0,0.1,0,0.2c0,0.3,0.1,0.6,0.3,0.8
			c0,0,0,0,0.1,0.1c0,0,0,0,0.1,0.1c0.1-0.4,0.2-0.7,0.4-1.1C37.6,39.4,37.4,39.3,37,39.3"/>
		<path class="st0" d="M34.8,41.8L34.8,41.8c0.8,0,1.5,0.1,2.1,0.1c0.1,0,0.3,0,0.4,0c0.1,0,0.2,0,0.3,0c0-0.2-0.1-0.4-0.1-0.7
			c0,0,0-0.1,0-0.2c0,0-0.1,0-0.1,0c0,0-0.1,0-0.1,0c-0.8,0-1.3-0.2-1.7-0.6c-0.1-0.2-0.2-0.4-0.3-0.6c-0.1,0-0.1,0-0.2,0
			c-0.1,0-0.1,0-0.2,0c0.1,0.2,0.1,0.5,0.1,0.8C35.1,41,35,41.4,34.8,41.8"/>
		<path class="st0" d="M35.5,39.8c0,0.2,0.1,0.3,0.2,0.5c0.2,0.3,0.6,0.5,1.2,0.6c-0.1-0.1-0.2-0.1-0.3-0.2
			c-0.3-0.2-0.5-0.5-0.7-0.8c0,0,0,0,0-0.1c0-0.1,0-0.2-0.1-0.3c0,0,0-0.1,0-0.1c0-0.1-0.1-0.1-0.1-0.2c-0.1,0-0.3,0-0.4,0
			c0,0.1,0,0.2,0,0.3C35.5,39.6,35.5,39.7,35.5,39.8"/>
		<path class="st1" d="M37.5,40.7c0.2,0.2,0.4,0.2,0.6-0.1c0.1-0.1,0.1-0.1,0.1-0.2c0.1-0.1,0.1-0.3,0.2-0.5
			c-0.2-0.1-0.3-0.2-0.5-0.3C37.7,39.9,37.6,40.3,37.5,40.7"/>
		<path class="st1" d="M37.5,41.9c0.5,0,1.1,0,1.5-0.1c0.3,0,0.7-0.1,0.9-0.1c-0.2-0.3-0.4-0.6-0.6-0.9c-0.2,0.1-0.4,0.2-0.7,0.2
			c-0.2,0-0.5,0.1-0.8,0c0,0-0.1,0-0.1,0c0,0-0.1,0-0.1,0c0,0-0.1,0-0.1,0c0,0-0.1,0-0.1,0h-0.1c0,0.1,0,0.1,0,0.2
			C37.5,41.4,37.5,41.6,37.5,41.9"/>
		<path class="st1" d="M38.8,40.6c-0.1,0.1-0.1,0.1-0.2,0.2c0,0,0,0-0.1,0c0,0,0.1,0,0.1,0c0.3,0,0.5-0.1,0.7-0.2
			c-0.1-0.1-0.2-0.2-0.2-0.2C39,40.5,38.9,40.6,38.8,40.6"/>
		<path class="st1" d="M38.5,40.5c0,0,0,0.1-0.1,0.1C38.4,40.6,38.5,40.6,38.5,40.5c0.1,0,0.2,0,0.3,0c0.1-0.1,0.2-0.1,0.2-0.2
			c-0.1-0.1-0.2-0.2-0.3-0.2C38.6,40.2,38.6,40.4,38.5,40.5"/>
		<path class="st1" d="M33.4,40c-0.4,0.3-0.7,0.6-1,1l0.7,0l-0.8,0.2c-0.1,0.1-0.1,0.2-0.2,0.3l0,0l1.1-0.1l1.6-0.1l-1.7,0.4l-0.1,0
			c0,0,0.1,0,0.1,0c0.5,0.1,1.1,0.1,1.7,0.2c0.2-0.4,0.3-0.8,0.3-1.2c0-0.3,0-0.5-0.1-0.8c-0.1,0-0.3,0-0.4,0
			C34.2,39.9,33.8,39.9,33.4,40"/>
		<path class="st22" d="M9.8,32.4l-0.7,0c0,0.1,0,0.1,0,0.2c0.1,0,0.2,0,0.3,0l0,0c0.3,0.1,0.2,0.3,0.1,0.4c0.5,0,1,0.1,1.4,0.2
			c0.1-0.2,0.3-0.5,0.3-0.7l-0.7,0L9.8,32.4z"/>
		<path class="st13" d="M11.6,30.1c0.3,0.6,0.4,1.3,0.2,2c-0.1,0.4-0.3,0.8-0.5,1.1c0.6,0.2,1.1,0.6,1.5,1.1
			c0.2-0.7,0.3-1.4,0.2-2.1c-0.1-0.7-0.3-1.4-0.7-2.1c-0.1-0.3-0.3-0.5-0.5-0.7c0-0.1-0.1-0.1-0.1-0.2c-0.1,0.2-0.2,0.5-0.3,0.7
			C11.5,30,11.6,30.1,11.6,30.1"/>
		<path class="st13" d="M9.1,32L9.1,32l0.7,0.1l1.7,0.1c0.1-0.5,0.1-1.1-0.1-1.6c0-0.1-0.1-0.1-0.1-0.2C10.7,31.1,10,31.7,9.1,32"/>
		<path class="st13" d="M8.8,32.6L8.8,32.6L8.8,32.6L8.8,32.6L8.8,32.6c0.1-0.1,0.2-0.1,0.4-0.1c0-0.1,0-0.1,0-0.2l-1,0l0.5,0.6
			c0.1,0,0.2,0,0.2,0C8.9,32.8,8.8,32.7,8.8,32.6"/>
		<path class="st13" d="M4.2,32.1c0,0.1,0,0.2-0.1,0.3c0.2,0.5,0.4,1,0.6,1.5l2.6-1.8L4.2,32.1z"/>
		<path class="st13" d="M7.2,33.5l0.3-1l-2.7,1.8c0,0.1,0.1,0.2,0.1,0.3c0.2,0.2,0.5,0.3,0.8,0.5C6.1,34.4,6.6,33.9,7.2,33.5"/>
		<path class="st13" d="M4,30.5c-0.1,0.2-0.3,0.4-0.4,0.6c0.1,0.2,0.1,0.5,0.2,0.7c0.1-0.3,0.3-0.6,0.5-0.9
			C4.2,30.7,4.1,30.6,4,30.5"/>
		<path class="st13" d="M5.3,35.3c0.1,0.1,0.1,0.2,0.2,0.3c0-0.1,0.1-0.1,0.1-0.2C5.5,35.3,5.4,35.3,5.3,35.3"/>
		<path class="st13" d="M7.9,32.5l-0.2,0.8c0.2-0.1,0.4-0.2,0.7-0.3L7.9,32.5z"/>
		<path class="st13" d="M8.9,32L8.9,32l0.2,0l0-0.1C9,32,9,32,8.9,32"/>
		<path class="st13" d="M4.2,31.8l1.7,0.1c-0.5-0.2-0.9-0.5-1.3-0.8C4.5,31.3,4.3,31.6,4.2,31.8"/>
		<path class="st8" d="M6.9,28.9c1.7-0.6,3.5-0.3,4.5,0.8c0,0.1,0.1,0.1,0.1,0.2c0.1-0.2,0.2-0.4,0.3-0.7c-1.4-1.6-3.6-1.5-5.6-0.4
			c-0.1,0-0.1,0.1-0.2,0.1c0.2,0,0.4,0.1,0.5,0.2C6.6,29,6.8,29,6.9,28.9"/>
		<path class="st8" d="M8.9,31.5C9,31.7,9,31.8,9.1,32c0.9-0.3,1.6-0.9,2.1-1.6c0-0.1-0.1-0.2-0.1-0.2l-1.6,1L8.9,31.5z"/>
		<path class="st8" d="M8.5,30.8c0,0,0-0.1,0-0.1l0,0c0.2-0.3,0.4-0.2,0.5-0.2c0.1,0,0.2,0.1,0.1,0.4l0,0c-0.1,0.1-0.3,0.2-0.4,0.3
			c0,0,0.1,0.1,0.1,0.1l0.6-0.4l1.5-1c-0.5-0.5-1.2-0.8-2-0.9l-0.3,0.9l-0.2,0.7C8.5,30.7,8.5,30.7,8.5,30.8"/>
		<path class="st8" d="M8.2,30.3l0.2-0.6L8.5,29c-0.4,0-0.7,0-1.1,0.1c-0.2,0-0.4,0.1-0.5,0.2C7.4,29.6,7.8,29.9,8.2,30.3"/>
		<path class="st14" d="M4.8,30.3c0.3-0.3,0.5-0.5,0.9-0.7c0.3-0.2,0.5-0.3,0.8-0.4C6.3,29,6.2,29,6,28.9l0,0c-0.5,0.3-1,0.6-1.4,1
			c-0.2,0.2-0.4,0.4-0.6,0.6c0.1,0.1,0.2,0.2,0.3,0.3C4.5,30.6,4.6,30.4,4.8,30.3"/>
		<path class="st14" d="M8.9,31.5L8.3,32l0.7,0c0,0,0.1,0,0.1,0C9,31.8,9,31.7,8.9,31.5"/>
		<path class="st14" d="M6,31.4L6,31.4c0-0.1,0.2-0.3,0.5-0.2l0,0c0.2,0.1,0.3,0.3,0.3,0.4l0,0l0,0v0l0,0c0,0-0.1,0-0.2,0.1
			c-0.1,0-0.3,0.1-0.4,0l0,0C5.9,31.7,5.9,31.5,6,31.4 M5,30.6c-0.2,0.2-0.3,0.3-0.4,0.5c0.4,0.3,0.8,0.6,1.3,0.8l1.2,0l0.4,0
			l-1.7-2C5.5,30.1,5.2,30.3,5,30.6"/>
		<path class="st14" d="M8.6,31.2L8.6,31.2L8.6,31.2L8.6,31.2L8.6,31.2c-0.1-0.1-0.1-0.2-0.1-0.4c0-0.1-0.1-0.1-0.1-0.2l-0.3,1.2
			l0.7-0.5c0,0-0.1-0.1-0.1-0.1C8.7,31.2,8.6,31.2,8.6,31.2"/>
		<path class="st14" d="M7.6,31.1L7.6,31.1L7.6,31.1L7.6,31.1c-0.1,0-0.4-0.2-0.4-0.4l0,0c-0.1-0.3,0.2-0.4,0.3-0.4
			c0,0,0.3-0.1,0.4,0.2l0,0C7.9,30.8,7.7,31,7.6,31.1L7.6,31.1z M8.2,30.3c-0.3-0.4-0.8-0.7-1.2-1c-0.3,0.1-0.6,0.2-0.9,0.4l1.7,2
			L8.2,30.3z"/>
		<path class="st8" d="M9.6,32.9c0,0-0.1,0.2-0.3,0.2c0,0.1,0,0.1,0,0.2c0,0.1,0,0.3,0,0.4l0.4,0.5l0.2,0.2c0.5-0.4,0.9-0.8,1.2-1.2
			C10.6,32.9,10.1,32.9,9.6,32.9L9.6,32.9z"/>
		<path class="st8" d="M8.4,37.7c0.7,0,1.5-0.2,2.2-0.6c1.1-0.6,1.9-1.6,2.2-2.8c-0.4-0.4-0.9-0.8-1.5-1.1c-0.3,0.5-0.8,1-1.5,1.5
			c-0.3,0.2-0.5,0.3-0.8,0.4c-0.1,0.1-0.3,0.1-0.4,0.2c-0.5,0.9-1.3,1.7-2.3,2.1l0,0C7.1,37.6,7.8,37.7,8.4,37.7"/>
		<path class="st8" d="M9.5,34.6C9.5,34.6,9.5,34.6,9.5,34.6l0-0.1l-0.3-0.4c0,0.2-0.1,0.5-0.2,0.7L9.5,34.6z"/>
		<path class="st22" d="M9.3,33.1c0,0-0.1,0-0.1,0l0,0C9,33,9,33,8.9,32.9c-0.1,0-0.2,0-0.2,0l0.4,0.5l0.1,0.1c0-0.1,0-0.3,0-0.4
			C9.3,33.2,9.3,33.1,9.3,33.1"/>
		<path class="st15" d="M5.7,35c0.3,0.1,0.6,0.2,1,0.2l0.5-1.7C6.6,33.9,6.1,34.4,5.7,35"/>
		<path class="st15" d="M8.8,35.3c-0.2,0.1-0.4,0.1-0.6,0.2c-0.9,0.2-1.9,0.2-2.6-0.1c0,0.1-0.1,0.1-0.1,0.2c0.3,0.6,0.7,1.2,1,1.8
			C7.5,37,8.3,36.2,8.8,35.3"/>
		<path class="st15" d="M7.7,33.7L7.7,33.7c0-0.2,0.2-0.5,0.3-0.5l0,0h0l0,0l0,0c0.1,0,0.3,0.2,0.4,0.4v0c0,0.3-0.3,0.4-0.3,0.4
			C8,33.9,7.7,34,7.7,33.7 M9,34.8c0.1-0.2,0.2-0.5,0.2-0.7l-0.3-0.3L8.3,33c-0.2,0.1-0.5,0.2-0.7,0.3l-0.6,2c0.4,0,0.8-0.1,1.2-0.2
			L9,34.8z"/>
		<path class="st17" d="M36.3,12.9c-0.8-0.8-1.3-1.7-1.6-2.8c-0.4,0.4-0.7,1-0.8,1.7c0,0.1,0,0.3,0,0.4c0,0.3,0.1,0.5,0.1,0.6
			c0,0.2,0,0.4,0,0.6c0.6,0,1.2,0.2,1.7,0.4C35.8,13.5,36,13.2,36.3,12.9"/>
		<path class="st18" d="M35.6,13.8c1.7,0.6,3.1,2,3.7,3.7c0.1,0,0.1-0.1,0.2-0.1h0c0.2-0.2,0.4-0.4,0.4-0.7c0-0.1,0-0.2,0-0.3
			c-0.1-0.3-0.5-1.1-1-1.9c-1-0.3-1.9-0.8-2.6-1.5C36,13.2,35.8,13.5,35.6,13.8"/>
		<path class="st19" d="M33.9,13.4c0,0.9,0.3,1.8,0.9,2.6c0.1-0.8,0.4-1.5,0.8-2.2C35.1,13.6,34.5,13.5,33.9,13.4"/>
		<path class="st16" d="M37.3,19.2c0.4,0,0.4-0.3,0.4-0.3c-0.2-0.3-0.1-0.7,0.2-1c0.3-0.2,0.6-0.4,1-0.3c0.2,0,0.4,0,0.5,0
			c-0.6-1.7-2-3.1-3.7-3.7c-0.4,0.7-0.7,1.4-0.8,2.2c0,0.1,0.1,0.1,0.1,0.2c0.3,0.3,0.6,0.6,0.9,0.8c1.6,1,1.3,1.5,1.3,1.6
			c-0.1,0.1-0.9,0.5-1.1,0.6l0,0C36.4,19.2,37.1,19.2,37.3,19.2"/>
		<path class="st16" d="M35.6,10.7c0-0.2,0.2-0.3,0.4-0.3c0.2,0,0.4,0.1,0.4,0.3c0,0.2-0.2,0.3-0.4,0.3C35.8,11,35.6,10.9,35.6,10.7
			 M37.3,12c0-0.4,0.2-0.9,0.2-1c0.3-0.2,0.8-0.2,1.2-0.1c0-0.1-0.3-0.3-0.5-0.3c-0.2,0-0.4-0.1-0.6-0.1c-0.2,0-0.4-0.1-0.6-0.3
			c-0.4-0.5-1.3-0.7-1.8-0.4c-0.3,0.1-0.5,0.3-0.7,0.5c0.3,1.1,0.9,2,1.6,2.8C36.6,12.6,36.9,12.2,37.3,12"/>
		<path class="st12" d="M36.3,12.9c0.7,0.7,1.6,1.2,2.6,1.5c-0.6-1-1.3-2-1.4-2.2c-0.1-0.1-0.1-0.2-0.1-0.3
			C36.9,12.2,36.6,12.6,36.3,12.9"/>
		<path class="st20" d="M43.7,15c-1.1,0.5-1.9,0.8-2.1,1.1c-0.2,0.3-1.1,0.5-1.7,0.5c0,0.4-0.2,0.6-0.4,0.7h0c0.6,0.1,1.3,0.2,2,0.2
			l2.5-2.3C44,15.3,43.8,15.2,43.7,15"/>
		<path class="st12" d="M44.1,15.4l0.9-0.8c-0.5,0.2-0.9,0.3-1.3,0.5C43.8,15.2,44,15.3,44.1,15.4"/>
		<path class="st12" d="M46.7,9.8c0.3-0.1,0.6-0.3,0.9-0.5c-0.3-0.3-0.5-0.6-0.8-0.9C46.8,8.8,46.8,9.3,46.7,9.8"/>
		<path class="st16" d="M43.8,10.5c0.1-0.4,0.2-0.7,0.3-1.1c0,0,0,0,0,0c-0.4,0-0.7,0-1.1,0c0.1-0.2,0.2-0.4,0.3-0.5
			c0,0,0.1-0.1,0.1-0.1c0.2,0,0.4,0,0.6,0c0.1,0,0.1,0,0.2-0.1c0.1-0.1,0.1-0.2,0.1-0.3c0-0.1-0.1-0.2-0.2-0.2c-0.2,0-0.4,0-0.6,0
			c-0.1,0-0.2,0-0.2-0.1c-0.1-0.1-0.3-0.1-0.3,0.1c0,0.1-0.1,0.1-0.1,0.2c-0.2,0.3-0.4,0.6-0.5,0.9c-0.1,0-0.1,0-0.2,0
			c-0.3,0-0.3,0-0.5,0.2c-0.2,0.2-0.3,0.4-0.5,0.6C41.9,9.9,42.9,10.1,43.8,10.5"/>
		<path class="st12" d="M45.2,11.7c0.2-0.4,0.4-0.7,0.7-1l0,0c-0.2,0-0.4,0-0.6-0.1c-0.2,0-0.5-0.1-0.7-0.1
			c-0.2-0.1-0.4-0.2-0.5-0.5c0-0.2,0-0.4,0-0.5c0,0,0-0.1,0-0.1c-0.1,0.3-0.2,0.7-0.3,1.1C44.3,10.8,44.8,11.2,45.2,11.7"/>
		<path class="st12" d="M44.5,9C44.5,9,44.5,9,44.5,9c-0.1,0.2-0.1,0.4-0.1,0.5c0,0.2,0.1,0.3,0.3,0.4c0,0,0.1,0,0.1,0
			c0.4,0.1,0.7,0.1,1.1,0.1c0.1,0,0.1,0,0.2,0c0.1-0.1,0.3-0.2,0.5-0.3c0.1-0.5,0.1-0.9,0.1-1.4c-0.1-0.1-0.1-0.1-0.2-0.2
			c-0.3,0.1-0.6,0.3-1,0.4C45.3,8.7,44.9,8.8,44.5,9"/>
		<path class="st16" d="M43.8,10.5c-0.1,0.6,0,1.2,0.1,1.8c0.4-0.2,0.9-0.3,1.3-0.5l0,0C44.8,11.2,44.3,10.8,43.8,10.5"/>
		<path class="st16" d="M44.3,13.2c0.1,0.1,0.1,0.2,0.2,0.3c0,0,0,0.1,0.1,0.1c0.1,0.1,0.2,0.2,0.2,0.3c0-0.5,0-1,0.2-1.5
			c-0.2,0.1-0.5,0.2-0.7,0.3c-0.1,0-0.1,0.1-0.2,0.1l0,0C44.1,12.9,44.2,13.1,44.3,13.2"/>
		<path class="st20" d="M47.8,9.6c-0.4,0.3-0.9,0.5-1.3,0.8c-0.2,0.4-0.4,0.8-0.7,1.1c0.4-0.2,0.8-0.3,1.3-0.5
			c0.3-0.1,0.5-0.2,0.8-0.3C47.8,10.3,47.8,10,47.8,9.6"/>
		<path class="st20" d="M47.1,11.6c-0.5,0.2-1,0.4-1.6,0.6l0,0c0.3,0.4,0.4,0.9,0.5,1.4l0,0l2.1-1.9c-0.1-0.2-0.1-0.3-0.2-0.5
			C47.7,11.3,47.4,11.5,47.1,11.6"/>
		<path class="st20" d="M46,10.6c0,0-0.1,0-0.1,0c-0.3,0.3-0.5,0.6-0.7,1l0,0c0,0,0,0,0.1,0c0.2-0.1,0.3-0.1,0.5-0.2
			c0.3-0.3,0.5-0.7,0.7-1.1C46.3,10.5,46.2,10.6,46,10.6"/>
		<path class="st18" d="M45.6,12.2c-0.1,0-0.2,0.1-0.3,0.1c-0.1,0-0.2,0.1-0.3,0.1c-0.1,0.5-0.2,1-0.2,1.5c0,0,0.1,0.1,0.1,0.1
			c0.1-0.1,0.3-0.1,0.4-0.2c0.3-0.1,0.5-0.2,0.8-0.3C46,13.1,45.8,12.6,45.6,12.2L45.6,12.2z"/>
		<polygon class="st19" points="45.2,11.7 45.3,11.7 45.2,11.7 		"/>
		<path class="st21" d="M47.9,10.7c0.2-0.1,0.4-0.2,0.6-0.2l-0.4-0.6c-0.1-0.1-0.1-0.2-0.2-0.3l0,0C47.8,10,47.8,10.3,47.9,10.7"/>
		<path class="st21" d="M48,11.2c0.1,0.2,0.1,0.3,0.2,0.5l0.7-0.7l-0.1-0.1c0,0-0.1,0-0.1,0C48.5,11,48.3,11.1,48,11.2"/>
		<path class="st21" d="M39.8,12.6c0,0.1,0,0.1,0,0.2c-0.1,0.3-0.1,0.6-0.1,1c0,0.1,0,0.1,0.1,0.1c0.3-0.1,0.7-0.3,1-0.4l0.1,0l0,0
			C40.4,13.2,40.1,12.9,39.8,12.6"/>
		<path class="st17" d="M43.8,10.5c-0.8-0.4-1.8-0.6-2.8-0.4c-0.2,0.2-0.3,0.5-0.5,0.8c1,0.2,1.9,0.8,2.5,1.7
			c0.3-0.1,0.5-0.2,0.8-0.3c0,0,0.1,0,0.1,0C43.7,11.6,43.7,11.1,43.8,10.5"/>
		<path class="st17" d="M44.6,13.6C44.6,13.6,44.5,13.6,44.6,13.6c-0.1-0.1-0.1-0.1-0.1-0.2c-0.3,0.1-0.6,0.2-0.9,0.3
			c0.1,0.2,0.1,0.4,0.1,0.6c0.4-0.1,0.8-0.2,1.1-0.4c0,0,0,0,0.1,0c0,0-0.1-0.1-0.1-0.1C44.7,13.8,44.7,13.7,44.6,13.6"/>
		<path class="st17" d="M44.6,13.6C44.6,13.6,44.5,13.6,44.6,13.6C44.5,13.6,44.6,13.6,44.6,13.6"/>
		<path class="st17" d="M44.5,13.5c-0.1-0.1-0.1-0.2-0.2-0.3c-0.1-0.2-0.2-0.3-0.2-0.5l0,0c-0.1,0-0.2,0.1-0.3,0.1
			c-0.1,0-0.3,0.1-0.4,0.2c0,0-0.1,0-0.1,0c0.1,0.2,0.2,0.5,0.3,0.7C43.9,13.7,44.2,13.6,44.5,13.5"/>
		<polygon class="st19" points="40.8,13.4 40.8,13.4 40.8,13.4 		"/>
		<path class="st19" d="M40.5,10.9c-0.1,0.2-0.3,0.5-0.4,0.7C40,11.8,40,12,39.9,12.2c-0.1,0.2-0.1,0.3-0.1,0.5
			c0.3,0.3,0.7,0.5,1,0.7l0.1,0c0.3-0.1,0.7-0.3,1-0.4c0.1-0.1,0.3-0.1,0.4-0.2c0.2-0.1,0.4-0.2,0.7-0.3
			C42.3,11.7,41.5,11.1,40.5,10.9"/>
		<path class="st21" d="M41.6,13.7c-0.2,0.1-0.3,0.1-0.5,0.2C41,13.9,40.9,14,40.7,14c-0.1,0.1-0.3,0.1-0.4,0.2
			c0.1,0.1,0.1,0.1,0.2,0.1c0.3,0.2,0.7,0.3,1,0.4c0.2,0,0.4,0,0.6,0c0.3,0,0.6-0.1,0.9-0.1c0.2,0,0.4-0.1,0.6-0.2
			c0-0.2-0.1-0.4-0.1-0.6C42.9,13.9,42.2,13.9,41.6,13.7"/>
		<path class="st19" d="M43.5,13.8c-0.1-0.2-0.2-0.5-0.3-0.7c-0.2,0.1-0.3,0.1-0.5,0.2c-0.4,0.1-0.8,0.3-1.1,0.4
			C42.2,13.9,42.9,13.9,43.5,13.8"/>
		<path class="st12" d="M38.3,8.3c-0.2,0.4-0.5,0.7-0.8,1l1.6,0.1C38.8,9,38.6,8.7,38.3,8.3"/>
		<path class="st19" d="M38.5,8c-0.1,0.1-0.1,0.2-0.2,0.3c0.2,0.4,0.5,0.7,0.8,1l1.3,0l0-0.7c-0.1,0-0.2,0-0.2,0
			C39.6,8.5,39,8.3,38.5,8"/>
		<path class="st17" d="M35.5,6.9c-0.2,0.6,0.1,1,0.8,1.1c0.1,0,0.2,0,0.3,0.1c0.3-0.6,0.8-0.7,0.8-0.7l0,0h0l0.2,0
			c-1-1-1.5-2.3-1.3-3.8c0-0.1,0-0.1,0-0.2c-0.1,0-0.2-0.1-0.3-0.1c-0.1,0-0.1,0-0.2,0l0,0C35.4,4,35,4.9,34.8,5.7
			C34.6,6.2,35.8,5.9,35.5,6.9"/>
		<path class="st17" d="M33.7,2.2C33.7,2.3,33.6,2.3,33.7,2.2c-0.1,0.2,0,0.3,0,0.3c0.1,0,0.1,0,0.2,0c0.1,0,0.2,0,0.3,0
			c0.3-0.3,0.7-0.6,1.1-0.9c0,0,0.1,0,0.1-0.1c-0.2-0.1-0.4-0.1-0.6-0.2C34.4,1.8,34,2,33.7,2.2L33.7,2.2z"/>
		<path class="st17" d="M34.6,2.7c0.3,0,0.6,0.1,0.9,0.2C35.8,2.9,36,3,36.3,3.1c0.1-0.3,0.2-0.7,0.3-1C36.4,2,36,1.9,35.7,1.8
			c-0.2,0.2-0.4,0.3-0.6,0.5C35,2.4,34.8,2.6,34.6,2.7"/>
		<path class="st17" d="M38.3,8.3c-0.1-0.2-0.2-0.4-0.2-0.5C38,7.7,38,7.7,37.9,7.6l-0.5,0c0,0-0.1,0.1-0.2,0.1
			C37,7.9,36.9,8,36.8,8.2c0,0.1,0,0.1-0.1,0.2c-0.1,0.4-0.2,0.7-0.3,0.8l1.1,0C37.9,9,38.1,8.7,38.3,8.3"/>
		<path class="st18" d="M38.3,8.3c0.1-0.1,0.1-0.2,0.2-0.3c-0.1-0.1-0.3-0.2-0.4-0.3C38.2,8,38.3,8.1,38.3,8.3"/>
		<path class="st17" d="M38.6,3.8C38.7,3.9,38.8,3.9,39,4c0.2-0.2,0.4-0.3,0.6-0.5c-0.2-0.2-0.5-0.4-0.6-0.7c-0.5-0.2-1-0.4-1.6-0.6
			C37.8,2.7,38.3,3.2,38.6,3.8"/>
		<path class="st19" d="M39.5,3.5c0.1-0.1,0.2-0.1,0.4-0.2c-0.3-0.2-0.7-0.3-1-0.5C39.1,3.1,39.3,3.3,39.5,3.5"/>
		<path class="st16" d="M42.5,6.3c0.1,0,0.3,0,0.4-0.1c0-0.3-0.1-0.6-0.2-1c0-0.2-0.1-0.3-0.1-0.5c-0.2-0.1-0.4-0.2-0.6-0.4
			c0.1,0.7,0.2,1.4,0.3,1.9C42.4,6.3,42.4,6.3,42.5,6.3"/>
		<path class="st16" d="M39.5,3.5C39.3,3.7,39.1,3.8,39,4c0.1,0,0.2,0.1,0.2,0.1c0.7,0.3,1.3,0.7,1.9,1.2c0.3,0.2,0.5,0.4,0.8,0.6
			c-0.1-0.5-0.2-1.1-0.3-1.6c-0.1,0-0.2,0-0.3,0C40.7,4.2,40,3.9,39.5,3.5"/>
		<path class="st16" d="M38.7,7.6c-0.1,0.1-0.1,0.3-0.2,0.4c0.5,0.3,1.1,0.5,1.7,0.6c0.1,0,0.2,0,0.2,0l0-0.9l-0.3,0L38.7,7.6z"/>
		<path class="st12" d="M41.3,4.3c0.1,0,0.2,0,0.3,0c0,0,0-0.1,0-0.1c-0.6-0.3-1.1-0.6-1.7-0.9c-0.1,0.1-0.3,0.1-0.4,0.2
			C40,3.9,40.7,4.2,41.3,4.3"/>
		<path class="st16" d="M39,6.4c0,0.3-0.1,0.6-0.2,0.9l1.3,0C40,7.2,40,6.9,40.1,6.7c0.6-0.1,0.8-0.5,1-1.1
			c-0.3-0.2-0.6-0.4-0.9-0.6c-0.1-0.1-0.2-0.1-0.3-0.2c-0.2-0.1-0.4-0.3-0.7-0.4c-0.2-0.1-0.3-0.2-0.5-0.2h0C39,4.9,39.1,5.7,39,6.4
			"/>
		<path class="st16" d="M36.8,4C36.9,4,37,4.1,37,4.2c0,0.1-0.1,0.2-0.3,0.2c-0.1,0-0.2-0.1-0.2-0.3C36.5,4,36.7,3.9,36.8,4
			 M37.5,7.3l0.4,0c-0.1-0.4-0.1-0.8-0.1-1.2c0,0,0-0.1,0-0.1c0,0-0.1,0.1-0.2,0.1l-0.1,0c-0.1,0-0.1-0.2-0.1-0.3l0,0l0.8-1.7l0,0
			c-0.1-0.1-0.3-0.1-0.4-0.2c-0.2-0.1-0.5-0.2-0.7-0.3c-0.3-0.1-0.6-0.2-0.9-0.3c0,0.1,0,0.1,0,0.2C36.1,5,36.6,6.3,37.5,7.3"/>
		<path class="st16" d="M37.2,3.3c0.3,0.1,0.6,0.2,0.9,0.3c0.2,0.1,0.4,0.1,0.5,0.2c-0.3-0.6-0.7-1.1-1.3-1.5
			c-0.2-0.1-0.4-0.1-0.6-0.2c-0.2,0.3-0.3,0.6-0.3,1C36.6,3.1,36.9,3.2,37.2,3.3"/>
		<path class="st16" d="M38,7.6l-0.2,0C38,7.7,38,7.7,38.1,7.8C38.1,7.7,38.1,7.7,38,7.6"/>
		<path class="st18" d="M38,7.3l0.8,0C38.9,7,39,6.7,39,6.4c0.1-0.8,0-1.5-0.3-2.2l0,0L38,6l0,0.1c0,0,0,0.1,0,0.1
			C37.9,6.5,37.9,6.9,38,7.3"/>
		<path class="st18" d="M38.5,8c0.1-0.1,0.1-0.3,0.2-0.4l-0.7,0c0,0.1,0,0.1,0.1,0.2C38.2,7.9,38.4,8,38.5,8"/>
		<path class="st9" d="M7.2,14.2c-0.2,0.2,0,0.3,0.5,0.1c0.1,0,0.1-0.1,0.2-0.1C7.7,14,7.5,14,7.4,13.9C7.3,14,7.3,14.1,7.2,14.2"/>
		<path class="st9" d="M9.8,15.3c-0.1,0.6,0.1,0.6,0.1,0.5c0.3-0.5,0.5-1,0.8-1.5c-0.3,0.1-0.5,0.1-0.8,0.1
			C9.9,14.8,9.8,14.9,9.8,15.3"/>
		<path class="st10" d="M14.5,9.9c0.3-0.1,0.6-0.1,0.9-0.1c0.2,0,0.5,0,0.7,0.1l0-0.2c-0.6,0-1.2-0.1-1.8-0.4
			C14.4,9.5,14.4,9.7,14.5,9.9"/>
		<path class="st11" d="M14.5,9.9c0.2,0.7,0.5,1.4,1,1.9c0.1-0.3,0.1-0.1,0.3-0.4c0.3-0.4,0.3-1.2,0.3-1.2l0.1-0.4
			c-0.2,0-0.5-0.1-0.7-0.1C15.1,9.8,14.8,9.8,14.5,9.9"/>
		<path class="st10" d="M17.4,10.3L17.4,10.3c0,0.1,0.2,0.4,0.5,0.3c0.1,0,0.1,0,0.2-0.1c0.4-0.2,0.2-0.6,0.2-0.6l-0.3-0.5
			c0,0,0,0,0-0.1c-0.3,0.1-0.6,0.2-0.9,0.3L17.4,10.3z"/>
		<path class="st11" d="M15.1,18.2c0.1,0.3,0.1,0.4,0.2,0.5c0.2,0.4,0.3,0.4,0.4,0.4c0.1,0,0.2-0.1,0.1-0.5c0-0.1,0-0.2-0.1-0.4
			c-0.1,0-0.2,0-0.2,0C15.3,18.2,15.2,18.2,15.1,18.2"/>
		<path class="st10" d="M15.1,18.2c0.1,0,0.2,0,0.4,0c0.1,0,0.2,0,0.2,0c-0.2-1-0.8-3.2-0.8-3.6c0-0.2-0.1-0.3-0.1-0.5
			c-0.3,0.2-0.5,0.4-0.8,0.6C14.2,15.6,14.8,17.3,15.1,18.2"/>
		<path class="st10" d="M9.6,12.2c0,0.1,0,0.1-0.1,0.1c-0.6,0-1,0.3-1.3,0.7C8,13.1,8,13.2,7.9,13.2c-0.2,0.2-0.4,0.4-0.5,0.6
			C7.5,14,7.7,14,7.8,14.1c0.2-0.2,0.5-0.3,0.7-0.4c0.3-0.2,0.6-0.4,1-0.6c0.3-0.2,0.7-0.4,0.9-0.7c-0.3-0.2-0.5-0.3-0.7-0.5
			C9.6,12,9.6,12.1,9.6,12.2"/>
		<path class="st11" d="M13.2,8.4c0,0.1,0.2,0.6,0.6,1.6c0,0,0,0,0,0.1v0l0,0c0.2-0.1,0.5-0.2,0.7-0.2c0-0.2-0.1-0.4-0.1-0.6
			c-0.3-0.2-0.7-0.4-1-0.6C13.3,8.5,13.3,8.5,13.2,8.4"/>
		<path class="st23" d="M11.4,12.7c0.3-1,1-1.9,1.9-2.4c-0.1-0.5-0.3-0.9-0.5-1.1l-0.2,0.6c0,0-0.2,0.4-0.4,0.4
			c-0.5,0.1-0.7-0.3-0.7-0.3s-0.1-0.1-0.2-0.2c-0.7,0.4-1.4,0.7-2.3,0.7c-0.2,0-0.3,0-0.4,0c-0.1,0.3,0.2,0.6,0.2,0.6s0.3,0.5,0.9,1
			c0.2,0.2,0.5,0.3,0.7,0.5c0.2,0.1,0.4,0.2,0.6,0.3C11.1,12.7,11.3,12.7,11.4,12.7L11.4,12.7z"/>
		<path class="st10" d="M11,12.6c0,0,0,0.1-0.1,0.1c0,0,0,0-0.1,0c-0.5,0.4-0.7,0.8-0.9,1.4l0,0c0,0.1,0,0.2,0,0.2
			c0.3,0,0.5-0.1,0.8-0.1l0,0c0,0,0.1-0.1,0.1-0.1c0.2-0.3,0.3-0.6,0.5-0.9c0-0.1,0.1-0.1,0.1-0.2l0,0c0.1-0.1,0.2-0.2,0.3-0.3
			c-0.1,0-0.2,0-0.3-0.1C11.3,12.7,11.1,12.7,11,12.6"/>
		<path class="st8" d="M15.3,12.1c0.1-0.1,0.1-0.2,0.1-0.3c-0.5-0.5-0.8-1.2-1-1.9c-0.2,0.1-0.5,0.1-0.7,0.2l0,0
			c-0.1,0.1-0.2,0.1-0.4,0.2c0,0,0,0.1,0,0.2c0.1,0.6,0.1,1.1,0,1.6c-0.1,0.4-0.2,0.7-0.4,0.7l0,0c-0.3,0.1-0.6,0.1-0.9,0.1
			c0,0.1-0.1,0.5-0.1,0.9c0,0.2,0,0.5,0,0.7c0,0.5,0.6,1.8,0.9,1.8h0c0.1,0,0.1-0.1,0.1-0.2c0-0.1,0-0.2,0-0.2
			c0-0.1-0.1-2.2-0.1-2.4c0-0.1,0-0.2,0-0.3c0.1-0.1,0.8-0.8,0.9-1c-0.2,0.4-0.2,1.2-0.1,1.9c0,0.1,0.1,0.4,0.2,0.6
			c0.2-0.2,0.5-0.4,0.8-0.6c0-0.2-0.1-0.5,0-0.6C14.7,13.3,15,12.7,15.3,12.1"/>
		<path class="st12" d="M13.4,10.5c0,0,0-0.1,0-0.2c-0.9,0.5-1.6,1.4-1.9,2.4l0,0.1c0.1,0,0.2,0,0.3,0.1c0.1,0,0.3,0,0.4,0
			c0.3,0,0.6,0,0.9-0.1l0,0c0.2-0.1,0.4-0.3,0.4-0.7C13.5,11.6,13.5,11,13.4,10.5"/>
		<path class="st23" d="M13.9,6.7C13.9,6.7,13.9,6.7,13.9,6.7c-0.3-0.1-0.5-0.2-0.7-0.2c0,0.2,0,0.4-0.1,0.6C13.3,7,13.5,7,13.7,6.9
			l0,0c0.1,0,0.2-0.1,0.3-0.1C14,6.8,14,6.7,13.9,6.7"/>
		<path class="st12" d="M14.7,7.5C14.7,7.5,14.7,7.5,14.7,7.5C14.5,8,14.4,8.5,14.4,9c0,0.1,0,0.2,0,0.3c0.5,0.3,1.1,0.4,1.8,0.4
			l0.2-1.2L17,9.6c0.3-0.1,0.6-0.2,0.9-0.3C17.7,9,17,7.8,16.8,7.5c-0.2-0.4-0.3-0.6-0.6-0.8c-0.4-0.2-0.9,0-0.9,0h0
			c-0.1,0.2-0.3,0.7-0.4,0.8C14.8,7.6,14.8,7.6,14.7,7.5"/>
		<path class="st9" d="M13.9,5.7C13.9,5.7,13.9,5.8,13.9,5.7c0,0,0,0.2-0.1,0.3c0,0-0.1,0.1,0,0.1c0.1,0,0.1,0.1,0.1,0.1
			s0,0.2,0.2,0.3c0.2,0,0.1,0.2,0.1,0.3c0.1,0,0.3,0.1,0.4,0c0.1,0,0.3-0.1,0.3-0.2h0c0,0,0-0.2,0-0.2c0-0.1,0.1-0.2,0.1-0.2
			s0.1,0,0.3,0.1c0.2,0,0.4,0.1,0.5,0.1c0.3,0-0.3-0.2-0.3-0.2s0,0-0.1,0C15.4,6.1,15.2,6,15.2,6c0.2-0.5,0-0.6-0.1-0.7
			c-0.1-0.1-0.2-0.1-0.3-0.1c-0.1,0-0.2-0.1-0.3-0.1C14.3,4.9,14,5.4,14,5.4c-0.1,0-0.1,0-0.2-0.1C14,5.5,13.9,5.6,13.9,5.7"/>
		<path class="st8" d="M15.1,6.7l-0.2,0c-0.1,0.1-0.2,0.1-0.3,0.2c-0.1,0-0.3,0-0.4,0l0,0c0,0,0,0-0.1,0c-0.1,0-0.2,0.1-0.3,0.1
			C13.8,7,14,7.1,14.1,7.2c0.2,0.1,0.4,0.3,0.5,0.3c0,0,0,0,0.1,0c0.1,0,0.1,0.1,0.2,0c0.1-0.1,0.3-0.6,0.4-0.8L15.1,6.7z"/>
		<path class="st10" d="M13.7,6.9c-0.2,0-0.4,0.1-0.5,0.1c-0.1,0.2-0.1,0.5-0.2,0.7c0,0.1-0.1,0.1-0.1,0.2C12.9,8.1,13,8.1,13,8.2
			c0,0,0.1,0.1,0.1,0.1l0,0c0.1,0.1,0.2,0.2,0.3,0.2c0.3,0.3,0.6,0.5,1,0.6c0-0.1,0-0.2,0-0.3c0-0.5,0.1-1,0.3-1.5
			c-0.1-0.1-0.3-0.2-0.5-0.3C14,7.1,13.8,7,13.7,6.9L13.7,6.9z"/>
		<path class="st12" d="M11.1,8.4c0,0-0.4-0.4-0.6-0.2c-0.1,0.1,0.1,0.4,0.3,0.7c0.3-0.1,0.5-0.2,0.6-0.2L11.1,8.4z"/>
		<path class="st10" d="M11.3,9.7c-0.1-0.2-0.4-0.5-0.5-0.8c-0.5,0.2-1.3,0.6-2,1.2c-0.1,0.1-0.2,0.1-0.2,0.2c0.1,0,0.3,0,0.4,0
			C9.9,10.4,10.7,10.1,11.3,9.7"/>
		<path class="st8" d="M13,8.2C13,8.1,12.9,8.1,12.8,8c-0.1-0.2-0.2-0.3-0.3-0.5c-0.3,0.4-0.6,1.7-0.6,1.7l-0.5-0.5
			c-0.1,0-0.3,0.1-0.6,0.2c0.2,0.3,0.4,0.6,0.5,0.8c0.1,0.1,0.2,0.2,0.2,0.2s0.2,0.4,0.7,0.3c0.3-0.1,0.4-0.4,0.4-0.4l0.2-0.6
			l0.3-0.8C13.1,8.3,13.1,8.3,13,8.2"/>
		<path class="st10" d="M11,6.8c0,0-0.1-0.1-0.1-0.1l0,0C10.7,7,10.3,7.4,10,7.9C9.7,8.3,9.4,8.7,9.4,8.8C9.3,8.9,9.2,8.9,9.1,8.9
			c-0.2,0-0.2,0-0.3,0.1C8.6,9.1,8.6,9.1,8.6,9.1c0.1,0,0.2,0,0.3,0c0.1,0,0.3,0.1,0.4,0c0.1-0.1,0.3-0.2,0.3-0.3
			c0.1-0.1,1.1-1.1,1.6-1.7C11.3,7.2,11.1,7,11,6.8"/>
		<path class="st23" d="M12.3,7.1c-0.1-0.2-0.2-0.5-0.2-0.7c0-0.1,0-0.2-0.1-0.3C11.9,6,11.8,6,11.7,6c-0.2,0.1-0.3,0.3-0.5,0.4
			c-0.1,0.1-0.2,0.2-0.3,0.2c0,0,0,0.1,0,0.1l0,0c0,0,0,0.1,0.1,0.1c0.1,0.2,0.3,0.3,0.4,0.3h0C11.5,7,11.5,7,11.5,7
			s-0.1,1.6-0.1,1.7l0.5,0.5c0,0,0.3-1.3,0.6-1.7C12.4,7.4,12.4,7.2,12.3,7.1"/>
		<path class="st9" d="M13,6.4c0,0,0-0.2,0.2-0.1c0,0,0,0,0.1,0c0.1,0,0.1,0,0.2-0.1c0.2-0.2,0.2-0.2,0.3-0.2c0,0,0.1-0.1,0.1-0.2
			c0-0.1,0.1-0.2,0-0.4c0-0.1-0.1-0.2-0.2-0.3c-0.2-0.1-0.3-0.2-0.5-0.2c-0.5,0.3-1,0.7-1.5,1.1c0.1,0,0.2,0,0.4,0.1
			C12.5,6.2,13,6.4,13,6.4"/>
		<path class="st9" d="M10,7.9c0.3-0.4,0.7-0.9,0.8-1.1c0,0,0-0.1,0-0.1c-0.3,0.3-0.6,0.5-0.9,0.8C9.9,7.5,9.9,7.5,9.8,7.6
			C9.9,7.7,10,7.8,10,7.9"/>
		<path class="st9" d="M12.5,7.5C12.5,7.5,12.6,7.5,12.5,7.5l0.1-0.1c0.1-0.2,0.3-0.3,0.5-0.3c0-0.2,0.1-0.4,0.1-0.6
			C13.1,6.4,13,6.4,13,6.4S12.5,6.2,12,6.1c0,0.1,0,0.2,0.1,0.3c0.1,0.3,0.1,0.5,0.2,0.7C12.4,7.2,12.4,7.4,12.5,7.5"/>
		<path class="st10" d="M13.2,7.1c-0.2,0.1-0.4,0.2-0.5,0.3l0,0.1c0,0,0,0,0,0.1c0.1,0.2,0.2,0.3,0.3,0.5c0-0.1,0.1-0.1,0.1-0.2
			C13,7.5,13.1,7.3,13.2,7.1"/>
		<path class="st16" d="M30.2,14.1h-0.5v0.1c0.2,0,0.4,0.1,0.6,0.1C30.2,14.3,30.2,14.2,30.2,14.1"/>
		<path class="st12" d="M29.7,14.2v0.8h1c-0.2-0.2-0.3-0.4-0.4-0.7C30.1,14.3,29.9,14.3,29.7,14.2"/>
		<path class="st16" d="M30.9,14.6c0.4-0.6,0.9-1.2,1.6-1.6v-0.6h-1.9v0.9h0.5v0.7h-1c0,0.1,0.1,0.2,0.1,0.2
			C30.5,14.4,30.7,14.5,30.9,14.6"/>
		<path class="st17" d="M30.9,14.6c0.4,0.2,0.8,0.5,1.1,0.8v-0.3h1.4v-0.9H32v-0.7h0.5v-0.3C31.9,13.5,31.3,14,30.9,14.6"/>
		<path class="st19" d="M31.1,15.5v0.3c0.3,0.1,0.6,0.2,0.9,0.3V16C31.7,15.9,31.4,15.7,31.1,15.5"/>
		<path class="st19" d="M32,15.4c-0.3-0.3-0.7-0.6-1.1-0.8c-0.1,0.1-0.2,0.3-0.2,0.4h0.4v0.4c0.3,0.2,0.6,0.4,0.9,0.5V15.4z"/>
		<path class="st12" d="M30.3,14.4c0.1,0.3,0.3,0.5,0.4,0.7h0c0.1-0.1,0.1-0.3,0.2-0.4C30.7,14.5,30.5,14.4,30.3,14.4"/>
		<path class="st10" d="M23.3,5.4c0.2,0.5,0.3,1,0.3,1.5c0,0.1,0,0.2,0,0.3l0,0c1-0.6,1.3-1.9,0.7-2.9c0,0-0.1-0.1-0.1-0.1
			C24,4.7,23.7,5.1,23.3,5.4"/>
		<path class="st8" d="M24.3,4.2C24,3.8,23.5,3.5,23,3.4c0.1,0,0.1,0.1,0.1,0.1c0.2,0.3,0,0.7-0.4,1.1c0.2,0.2,0.4,0.5,0.5,0.8
			C23.7,5.1,24,4.7,24.3,4.2"/>
		<path class="st23" d="M21.1,6.2c-0.2,0-0.4,0-0.5,0c0,0.1,0.1,0.3,0.2,0.4c0.3,0.5,0.8,0.9,1.4,1c-0.3-0.4-0.6-0.8-0.7-1.3
			C21.3,6.2,21.2,6.2,21.1,6.2"/>
		<path class="st11" d="M21.1,6.2c0.1,0,0.2,0,0.3,0c-0.1-0.3-0.1-0.6-0.1-0.9c-0.3,0-0.6-0.1-0.7-0.2c0-0.1-0.1-0.2-0.1-0.3
			c-0.2,0.4-0.2,0.9,0,1.4C20.7,6.2,20.9,6.2,21.1,6.2"/>
		<path class="st9" d="M23.3,5.4c-0.5,0.4-1.2,0.7-1.8,0.7c0.1,0.5,0.4,0.9,0.7,1.3c0.5,0.1,1,0,1.4-0.3c0-0.1,0-0.2,0-0.3
			C23.6,6.4,23.5,5.9,23.3,5.4"/>
		<path class="st12" d="M23.3,5.4c-0.1-0.3-0.3-0.6-0.5-0.8c-0.1,0.1-0.3,0.2-0.5,0.4c-0.3,0.2-0.7,0.3-1,0.3c0,0.3,0.1,0.6,0.1,0.9
			C22.1,6.1,22.7,5.8,23.3,5.4"/>
		<path class="st8" d="M21.7,1.7C21.7,1.8,21.7,1.8,21.7,1.7l-0.1,1.7c-0.1,0-0.1,0.1-0.2,0.1c0,0,0,0-0.1,0c0.1,0,0.1,0,0.2,0.1
			c0,0,0.1,0,0.1,0C21.7,3.4,21.8,3.2,22,3l0-1.1l0.1,0c0.1-0.1,0.2-0.2,0.1-0.3l0.1-0.1c-0.2,0-0.3,0.1-0.5,0.1
			C21.7,1.5,21.6,1.7,21.7,1.7"/>
		<path class="st8" d="M21.6,3.6l0,0.1C21.8,3.8,21.9,3.9,22,4l0-0.5c0.2,0,0.4,0,0.4,0.1c0.1,0.1,0,0.3-0.2,0.5
			c0.1,0.1,0.2,0.2,0.3,0.3c0.3-0.3,0.4-0.7,0.3-0.9c0-0.1-0.1-0.1-0.2-0.2c-0.1,0-0.1,0-0.2-0.1c-0.1,0-0.3,0-0.4,0L22,3
			C21.8,3.2,21.7,3.4,21.6,3.6L21.6,3.6z"/>
		<path class="st12" d="M20.9,4.5c-0.1-0.2,0.1-0.6,0.5-0.8l0,0c-0.1,0-0.1,0-0.2-0.1c-0.3,0.2-0.6,0.5-0.7,0.7c0,0.1,0,0.1,0,0.2
			c0,0.1,0,0.2,0.1,0.3C20.8,4.9,21,5,21.3,5c0-0.1,0-0.3,0-0.4C21.1,4.6,21,4.6,20.9,4.5"/>
		<path class="st12" d="M22,4.3L22,4c-0.1-0.1-0.3-0.2-0.4-0.2l-0.1,0.8c-0.1,0-0.2,0-0.2,0.1c0,0.1,0,0.3,0,0.4
			c0.3,0,0.6-0.1,0.9-0.3c0.2-0.1,0.3-0.2,0.4-0.3c-0.1-0.1-0.2-0.2-0.3-0.3C22.2,4.2,22.1,4.2,22,4.3"/>
		<path class="st13" d="M16.2,21.5c0.1-0.1,0.2-0.2,0.3-0.2l0.1,0c0-0.1,0-0.1,0-0.2c0-0.6,0.1-1.1,0.3-1.6
			c-0.8,0.5-1.4,1.2-1.8,2.1c0.2,0,0.4,0,0.6,0C15.8,21.5,16,21.5,16.2,21.5"/>
		<path class="st13" d="M16.6,17.1c0.1,0.1,0.2,0.2,0.2,0.4c0,0.2,0.1,0.4,0.1,0.6c0.1,0.3,0.2,0.6-0.1,0.8c0.1,0,0.2-0.1,0.2-0.1
			c0.1-0.2,0.2-0.3,0.3-0.5c0-0.1,0.1-0.1,0.1-0.2c-0.1,0-0.2-0.1-0.2-0.2l0,0c-0.1-0.5-0.1-0.5-0.1-0.6c0-0.1,0-0.2-0.1-0.3l0,0
			c0,0,0-0.1,0-0.1c0-0.1,0-0.2,0.1-0.2c0.1,0,0.2,0.1,0.2,0.2c0.1,0.5,0.2,0.8,0.2,1.1c0,0,0.1-0.1,0.1-0.1
			c0.1-0.1,0.1-0.1,0.2-0.2c0.1-0.1,0.1-0.1,0.2-0.2c0.1,0,0.1-0.1,0.2-0.1c0.1,0,0.1-0.1,0.2-0.2c0.1,0,0.1-0.1,0.2-0.1
			c0.1-0.1,0.2-0.1,0.4-0.2c0-0.1,0-0.2,0.1-0.3c0.2-0.3,0.1-0.6-0.2-0.8c-0.7-0.4-2-0.2-2.5,0.5C16.3,16.6,16.3,16.8,16.6,17.1"/>
		<path class="st14" d="M17.2,14.8L17.2,14.8c-0.2,0.3-0.2,0.5-0.3,0.8c0.5-0.3,1-0.4,1.5-0.3c-0.2-0.2-0.3-0.4-0.5-0.6l0,0
			c0.2-0.1,0.4-0.1,0.5-0.2c-0.1-0.2-0.1-0.3-0.2-0.4c-0.2,0.1-0.4,0.1-0.6,0.1c-0.1,0-0.2,0-0.2,0c0,0-0.1,0-0.1,0
			c-0.2,0-0.4,0-0.6-0.1c0,0.2,0,0.4,0,0.7C16.7,14.8,16.9,14.8,17.2,14.8"/>
		<path class="st15" d="M19.9,25.7c0,0.5-0.1,1.1-0.3,1.5c0.2,0,0.3-0.1,0.5-0.1c0.2,0,0.3-0.1,0.5-0.1c-0.1-0.5-0.2-1-0.2-1.5
			c-0.2,0-0.3-0.1-0.5-0.1C19.8,25.6,19.9,25.6,19.9,25.7"/>
		<path class="st8" d="M17.3,14.2c0.1,0,0.2,0,0.2,0c0.2,0,0.4-0.1,0.6-0.1c-0.4-0.9-0.7-1.1-1-1.5c0-0.2,0.1-0.3,0.1-0.3
			s-0.4-0.2-0.6,0.1c0,0.1,0.2,0.3,0.2,0.3s-0.2,0.3-0.3,1.5C16.8,14.1,17,14.2,17.3,14.2C17.2,14.2,17.2,14.2,17.3,14.2"/>
		<path class="st8" d="M17.2,23.4c-0.2-0.4-0.4-0.8-0.5-1.3l0,0c-0.2,0-0.5-0.1-0.5-0.3c0-0.1,0-0.2,0-0.3c-0.2,0-0.4,0-0.5,0
			c-0.2,0-0.4,0-0.6,0c-0.1,0.3-0.2,0.6-0.3,0.9c-0.3,1-0.3,2-0.5,3.1c0.7-0.5,1.5-0.9,2.3-1.2C16.6,24,16.9,23.7,17.2,23.4"/>
		<path class="st13" d="M16,25.9c0-0.3,0.1-0.7,0.2-1c-0.5,0.2-1,0.5-1.5,0.8c-0.6,0.4-1.1,0.8-1.4,1.4c-0.3,0.5-0.5,1.1-0.1,1.6
			c0.1,0.2,0.2,0.4,0.3,0.6c0,0.1,0.1,0.3,0.1,0.4c0,0,0,0.1,0,0.1c0.1,0,0.1-0.1,0.2-0.1c0.1-0.1,0.1-0.1,0.2-0.2
			c0.2-0.2,0.5-0.4,0.8-0.5c0,0,0.1-0.1,0-0.1c-0.1-0.5-0.2-0.9-0.3-1.4c-0.1-0.5,0.8-0.8,0.9-0.4c0.1,0.4,0.2,1.1,0.3,1.3
			c0.4-0.2,0.7-0.3,1.1-0.5C16.3,27.5,16,26.7,16,25.9"/>
		<path class="st14" d="M16.4,24.3c0.4-0.2,0.7-0.3,1.1-0.4c-0.1-0.2-0.2-0.3-0.3-0.5C16.9,23.7,16.6,24,16.4,24.3"/>
		<path class="st14" d="M19.8,25.5c-0.8-0.2-1.4-0.6-2-1.2c-0.6,0.2-1.2,0.4-1.7,0.6c-0.1,0.3-0.2,0.6-0.2,1c0,0.8,0.3,1.6,0.8,2.1
			c0.4-0.2,0.9-0.3,1.4-0.5c0-0.2-0.1-0.9-0.2-1.4c-0.1-0.6,1-0.8,1.1-0.4c0,0.1,0.2,1.2,0.3,1.5c0.1,0,0.2,0,0.2-0.1
			c0.2-0.5,0.3-1,0.3-1.5C19.9,25.6,19.8,25.6,19.8,25.5"/>
		<rect x="17.7" y="18" class="st8" width="0" height="0"/>
		<path class="st8" d="M19.5,20.4c0.2,0,0.5,0.1,0.5,0.3c0,0.2-0.1,0.5-0.3,0.5c-0.2,0-0.5-0.1-0.5-0.3
			C19.1,20.7,19.3,20.5,19.5,20.4 M17.1,19.2c-0.1,0.1-0.2,0.1-0.3,0.2c-0.2,0.5-0.3,1.1-0.3,1.6c0,0.1,0,0.1,0,0.2
			c0.2,0,0.4,0.1,0.5,0.4c0,0,0,0.1,0,0.1c0.6,0.2,1.2,0.6,1.7,1c0.2,0,0.4,0,0.5,0c0.4,0,0.8,0.1,1.2,0.2c0.2-1.4,0.5-2.6,1.1-3.6
			C20.1,18.5,18.6,18.5,17.1,19.2"/>
		<path class="st8" d="M17.7,18L17.7,18C17.7,18.1,17.7,18.1,17.7,18"/>
		<path class="st8" d="M18.6,17.2c-0.1,0.1-0.1,0.1-0.2,0.2c-0.1,0-0.1,0.1-0.2,0.1c-0.1,0.1-0.1,0.1-0.2,0.2
			c-0.1,0.1-0.1,0.1-0.2,0.2c0,0-0.1,0.1-0.1,0.1l0,0h0c0,0.1,0,0.2,0,0h0l0,0l0,0c0,0.1-0.1,0.2-0.1,0.2c0,0.1-0.1,0.1-0.1,0.2
			c-0.1,0.2-0.2,0.3-0.3,0.5c0.8-0.4,1.7-0.5,2.6-0.5c-0.3-0.1-0.3-0.3-0.3-0.5c-0.1-0.3-0.1-0.6-0.2-0.8c0,0,0,0,0-0.1
			C19,17,18.9,17,18.8,17.1C18.7,17.1,18.6,17.2,18.6,17.2"/>
		<path class="st14" d="M18.6,22.8c0.2,0.2,0.4,0.5,0.6,0.7c0.4-0.1,0.7-0.1,1.1-0.2c0-0.1,0-0.3,0-0.4c-0.4-0.1-0.8-0.2-1.2-0.2
			C19,22.7,18.8,22.7,18.6,22.8"/>
		<path class="st14" d="M19.5,23.9c0.2,0.5,0.3,1,0.4,1.5c0.2,0,0.3,0.1,0.5,0.1c0-0.4,0-0.7,0-1.1c0-0.2,0-0.4,0-0.7
			c-0.2,0-0.5,0.1-0.7,0.1C19.5,23.9,19.5,23.9,19.5,23.9"/>
		<path class="st15" d="M16.6,22.1c0.1,0.5,0.3,0.9,0.5,1.3c0.4-0.3,0.9-0.6,1.5-0.7c-0.5-0.5-1-0.8-1.7-1
			C17,21.9,16.8,22.1,16.6,22.1"/>
		<path class="st13" d="M17.2,23.4c0.1,0.2,0.2,0.3,0.3,0.5c0.6-0.2,1.1-0.3,1.7-0.4c-0.2-0.3-0.4-0.5-0.6-0.7
			C18.1,22.8,17.6,23.1,17.2,23.4"/>
		<path class="st13" d="M19.5,23.9c-0.5,0.1-1.1,0.2-1.6,0.4c0.5,0.5,1.2,0.9,2,1.2C19.8,24.9,19.7,24.4,19.5,23.9"/>
		<path class="st4" d="M19.5,43.9L19.5,43.9L19.5,43.9L19.5,43.9z M19.6,43.9c0.4-0.1,0.8-0.2,1.2-0.3c0.1,0,0.2,0,0.4-0.1l0.2-0.3
			c-0.2,0-0.4,0.1-0.6,0.1c-0.5,0.1-0.9,0.2-1.3,0.4l0,0C19.4,43.8,19.5,43.8,19.6,43.9L19.6,43.9z"/>
		<path class="st4" d="M22,43.4h0.1l0,0l0.1-0.2l-0.2,0c-0.2,0-0.3,0-0.5,0l-0.2,0.2C21.6,43.4,21.8,43.4,22,43.4"/>
		<path class="st4" d="M22.4,46.1l-0.3-0.6l0.5-0.2c0.4-0.1,0.8-0.3,1-0.5c0.1,0,0.1-0.1,0.2-0.1l0,0.7l0,0.1
			c0.3-0.1,0.6-0.1,0.9-0.1l-0.3-1.6l0,0l0,0c-0.1-0.4-0.7-0.7-1.6-0.7l0,0l0,0h-0.1l-0.1,0.2l0,0h0.1l0.1,0c0.8,0,1.4,0.2,1.5,0.5
			c0,0.2-0.1,0.4-0.5,0.7l-0.2,0.1c-0.3,0.2-0.6,0.3-1,0.5l-0.2,0.1c-0.3,0.1-0.6,0.2-0.9,0.2c-0.1,0-0.2,0-0.3,0.1l-0.2,0
			c-0.1,0-0.3,0-0.4,0c0,0.1,0,0.2,0,0.3c0.2,0,0.4,0,0.7-0.1l-0.3,1.3c0.2,0.1,0.4,0.1,0.7,0.2C21.5,46.9,21.9,46.5,22.4,46.1"/>
		<path class="st5" d="M21.2,47.4c0.7,0.2,1.3,0.3,2,0.4l-0.9-1.6C21.9,46.5,21.5,46.9,21.2,47.4"/>
		<path class="st5" d="M24.9,47.2l-0.3-1.7c-0.3,0-0.6,0-0.9,0.1l-0.2,2.2c0.3,0,0.6,0.1,0.9,0.1C24.7,47.7,24.8,47.4,24.9,47.2"/>
		<path class="st6" d="M19,45.9C19,45.9,19,45.9,19,45.9c0.4,0.1,0.8,0.1,1.2,0c0-0.1,0-0.2,0-0.3c-0.1,0-0.1,0-0.2,0l-0.8,0l-0.2,0
			c-0.6-0.1-1.1-0.3-1.1-0.5c-0.1-0.3,0.4-0.7,1.2-1.1l0.1,0l0.4-0.1c0-0.1-0.1-0.1-0.2-0.2l-0.1,0l0,0l-0.4,0.2
			c-0.7,0.4-1.2,0.8-1.3,1.2l0.3,1.3c0.5,0.2,1,0.3,1.4,0.5l-0.2-0.4L19,45.9z"/>
		<path class="st5" d="M22.1,43.4L21.7,44c-0.1,0-0.2,0-0.3,0.1c0,0.1-0.1,0.1,0,0.2c0,0.1,0.1,0.1,0.1,0.2c0.1,0,0.1,0.1,0.2,0
			c0.1,0,0.1-0.1,0.2-0.1c0.1-0.1,0.1-0.2,0-0.3l0.5-0.7l0,0l0.1-0.2l1.3-2l-0.2-0.1l-1.4,2.1L22.1,43.4L22.1,43.4z"/>
		<path class="st5" d="M21.1,43.5l-0.4,0.6c-0.1,0-0.2,0-0.3,0.1c0,0.1-0.1,0.1,0,0.2c0,0.1,0.1,0.1,0.1,0.2c0.1,0,0.1,0.1,0.2,0
			c0.1,0,0.1-0.1,0.2-0.1c0.1-0.1,0.1-0.2,0-0.3l0.5-0.7l0.1-0.1l0.2-0.2l1.2-1.8l-0.2-0.1l-1.3,2L21.1,43.5L21.1,43.5z"/>
		<path class="st4" d="M32.5,37.5l0.5,0.3c0.1-0.2,0.2-0.3,0.2-0.5c0.2,0,0.4,0.1,0.6,0c-0.2,0.3-0.6,0.4-0.8,0.4
			c-0.4,0.1-0.6,0.1-0.9,0.1C32.3,37.8,32.4,37.7,32.5,37.5 M32.2,38c-0.1,0-0.2,0-0.2,0c-0.2,0.4-0.4,0.7-0.7,1
			c0.1,0,0.3,0,0.4-0.1c0.6-0.1,1.2-0.1,1.7-0.3c0.3-0.1,0.7-0.3,0.9-0.5c0.6-0.6,0.5-1.3,0.3-1.7c-0.1-0.3-0.3-0.5-0.3-0.5
			c0,1.2-0.5,1.2-2.2,1.4c0,0.2-0.1,0.4-0.2,0.6C32,37.9,32.1,37.9,32.2,38"/>
		<path class="st6" d="M29.7,38c0.2,0.1,0.4,0.2,0.6,0.3c-0.3,0.1-0.6,0.2-0.9,0.3C29.4,38.4,29.5,38.2,29.7,38 M28.7,38.4
			c0.2,0.1,0.4,0.1,0.6,0.2c-0.2,0.1-0.4,0.2-0.7,0.3c0.4,0.2,0.7,0.5,0.9,0.8c0.3-0.3,0.6-0.5,1.1-0.6c-0.1-0.3-0.2-0.6-0.2-0.9
			c-0.1,0-0.1,0-0.2,0c0.1-0.1,0.1-0.2,0.2-0.2c0-0.1,0-0.3,0-0.4c0,0,0-0.1,0-0.1c-0.5,0.1-1.2,0.2-1.8,0.4
			c-0.4,0.1-0.8,0.3-1.1,0.4c0.4,0.1,0.7,0.2,1.1,0.4C28.6,38.6,28.6,38.5,28.7,38.4"/>
		<path class="st3" d="M30.4,38.1c0.1-0.1,0.1-0.2,0.2-0.3c0.2,0.1,0.4,0.2,0.6,0.4c-0.2,0-0.5,0.1-0.7,0.1c0,0.3,0.1,0.6,0.2,0.9
			c0.2,0,0.4-0.1,0.6-0.1c0.3-0.3,0.5-0.6,0.7-1c-0.2,0-0.5,0-0.7,0.1c0.1-0.2,0.3-0.3,0.4-0.5c0.1,0.1,0.2,0.2,0.4,0.2
			c0.1-0.2,0.1-0.4,0.2-0.6c-0.5,0.1-1.1,0.1-1.8,0.3c0,0,0,0.1,0,0.1C30.4,37.8,30.4,37.9,30.4,38.1"/>
		<path class="st5" d="M32.1,44.6c0.1-0.1,0.2-0.3,0.3-0.4c-0.2,0-0.3-0.1-0.5-0.1C32,44.3,32.1,44.5,32.1,44.6"/>
		<path class="st5" d="M30.4,42.5c0.6,0.3,1.1,0.8,1.4,1.4c0.1-0.1,0.2-0.1,0.3-0.2c0.1,0.2,0.3,0.3,0.4,0.5
			c0.7-0.7,1.6-1.1,2.6-1.1c0.1-0.2,0.2-0.3,0.3-0.4c0,0-0.1,0-0.1,0c-0.1,0-0.3,0-0.6,0.1c0,0,0,0-0.1,0l0,0
			c-0.1,0-0.5-0.1-0.9-0.2l-0.1,0c0,0-0.1,0-0.1,0c-0.3-0.1-0.7-0.1-1.2-0.2l0,0c-0.1,0-0.1,0-0.2,0c-0.1,0-0.2,0-0.2,0
			c-0.5-0.1-1-0.2-1.5-0.4c0,0.1,0,0.1,0,0.2C30.4,42.2,30.4,42.3,30.4,42.5"/>
		<path class="st5" d="M27.2,41.2c0.2,0.1,0.4,0.2,0.6,0.3c0,0.2-0.1,0.4-0.1,0.6c0.3-0.1,0.5-0.1,0.8-0.1c0.1,0,0.1,0,0.2,0
			c0.1-0.5,0.3-0.9,0.6-1.3c0-0.2,0-0.4,0-0.6c-0.3,0.1-0.6,0.1-0.8,0.1c-0.4,0-0.7-0.1-1.1-0.2c-0.1,0.2-0.1,0.3-0.1,0.3
			c0.1,0.2,0.2,0.2,0.3,0.4C27.4,40.9,27.3,41,27.2,41.2c-0.1-0.4,0-0.5,0.1-0.9c0-0.1,0-0.2,0-0.3c-0.4-0.1-0.7-0.3-1-0.6
			c-0.2,0.2-0.3,0.5-0.4,0.7c-0.2,0.1-0.8,0.3-0.9,1.2c0,0.3-0.1,0.9-0.1,0.9c-0.1,0.1-0.6,0.2-0.6,0.2c-0.1,0.1,0.1,0.2,0.2,0.2
			c0.1,0-0.2,0.4-0.1,0.4c0.1,0,0.1,0,0.2-0.1c0-0.1,0.1-0.1,0.2-0.1c0.2,0,0,0.4,0.2,0.3C25,43.3,25,43,25.1,43c0,0,0.1,0,0.2,0.1
			c0.1,0,0.1,0.1,0.2,0c0.1-0.1-0.1-0.2-0.1-0.3c0-0.1,0.1-0.2,0.3-0.3c0,0.2,0.1,0.5,0.2,0.7c0.5-0.5,1.1-0.9,1.8-1
			C27.5,41.9,27.3,41.6,27.2,41.2"/>
		<path class="st4" d="M27.3,39.7c0.1,0,0.5-0.1,0.5-0.1c0-0.2,0-0.4,0-0.7c0.2,0,0.4,0,0.7,0.1c-0.3,0.2-0.5,0.3-0.7,0.6
			c-0.2,0.1-0.3,0.4-0.4,0.5c0.3,0.1,0.7,0.2,1.1,0.2c0.3,0,0.6,0,0.8-0.1c0,0,0-0.1,0-0.1c0-0.1,0.1-0.2,0.2-0.3
			c-0.3-0.3-0.6-0.6-0.9-0.8c-0.1,0-0.1,0.1-0.2,0.1c0-0.1,0-0.1,0.1-0.2c-0.3-0.2-0.7-0.3-1.1-0.4c-0.5,0.3-0.9,0.7-1.3,1.1
			c0.3,0.2,0.7,0.4,1,0.6C27.2,39.9,27.3,39.7,27.3,39.7"/>
		<path class="st4" d="M30.4,42.5c0-0.2,0-0.3,0-0.5c0-0.1,0-0.1,0-0.2c-0.6-0.3-1-0.6-1.1-1.1c-0.3,0.4-0.5,0.8-0.6,1.3
			C29.3,42.1,29.9,42.2,30.4,42.5"/>
		<polygon class="st6" points="40.1,43.6 40.2,43.6 40.2,43.6 		"/>
		<path class="st4" d="M40,44c0,0,0.1,0,0.1,0c0.2,0,0.3,0.2,0.3,0.3c0,0.1,0,0.1-0.2,0.2c0,0,0,0-0.1,0c0,0-0.2,0-0.2-0.1
			C39.8,44.2,39.9,44,40,44 M37,43.7c0.6,0.4,1.1,0.9,1.5,1.6c0.1,0,0.1,0,0.2,0.1c0.3,0.1,0.9,0,1.2-0.2c0.3-0.2,0.7,0,1-0.1
			c0.3-0.1,0.3-0.3,0.6-0.3c0.3,0,0.5-0.2,0.4-0.5c-0.1-0.1-0.2-0.3-0.4-0.4c-0.1-0.2-0.2-0.4-0.5-0.3c0,0-0.1,0-0.1,0.1
			c-0.1,0-0.1,0-0.2,0c-0.1,0-0.3,0-0.5,0l0,0c-0.4,0-1,0-1.4-0.1c-0.6-0.1-1.4-0.1-1.6-0.4c0,0-0.1-0.1-0.2-0.2c0,0.1,0,0.1,0,0.2
			C37,43.3,37,43.5,37,43.7"/>
		<path class="st4" d="M38.7,45.7c0,0.1,0.1,0.3,0.1,0.4c0.5-0.2,1-0.4,1.4-0.6c-0.4,0-0.9,0.1-1,0.2C39.1,45.8,38.9,45.8,38.7,45.7
			"/>
		<path class="st3" d="M35.1,43.2c0.7,0,1.3,0.2,1.9,0.5c0-0.2,0-0.3,0-0.5c0-0.1,0-0.1,0-0.2c-0.2-0.2-0.5-0.5-0.8-0.4
			c-0.1,0-0.2,0.1-0.2,0.1l-0.1,0c-0.1,0-0.1,0-0.2,0l0,0c-0.1,0-0.2,0-0.3,0C35.2,42.8,35.1,43,35.1,43.2L35.1,43.2L35.1,43.2z"/>
		<path class="st3" d="M30.5,43.8c0.2-0.1,0.4-0.2,0.6-0.3c0.1,0.2,0.3,0.4,0.4,0.5C31.2,44,30.8,43.9,30.5,43.8 M31.9,44.1
			c-0.1,0-0.3-0.1-0.4-0.1c0.1-0.1,0.2-0.1,0.3-0.2c-0.3-0.6-0.8-1.1-1.4-1.4c0,0.3-0.1,0.5-0.2,0.8c0.1,0.2,0.2,0.3,0.3,0.5
			c-0.2,0-0.3-0.1-0.5-0.1c-0.2,0.5-0.6,1-1.1,1.3c0.2,0.4,0.5,0.8,0.8,1.1c0.5,0.2,1.1,0.3,1.6,0.4c0.1-0.7,0.3-1.3,0.7-1.8
			C32.1,44.5,32,44.3,31.9,44.1"/>
		<path class="st6" d="M31.1,47.2c0,0,0.1-0.1,0.1-0.1c0.1-0.1,0.1-0.1,0-0.1c0-0.1-0.3-0.1-0.5-0.1c0,0,0,0-0.1,0
			c-0.2,0-1.8-0.5-1.5-0.8c0,0,0.1-0.1,0.1-0.1c0.2,0.1,0.3,0.1,0.5,0.2c-0.3-0.3-0.6-0.7-0.8-1.1c-0.3,0.2-0.6,0.4-0.9,0.5l0,0
			c-0.2,0.3-0.7,1,0.1,1.4c0.7,0.4,1.5,0.4,1.6,0.6c0.1,0.2,0.1,0.4,0.3,0.5c0.1,0.1,0.1,0.1,0.2,0c0.1-0.1,0.1-0.3,0.2-0.3
			c0.1,0,0.2,0.2,0.3,0.3c0.1,0.1,0.2,0.1,0.2,0c0.1-0.1-0.1-0.3-0.1-0.4c0.2-0.1,0.4,0.3,0.5,0C31.4,47.4,30.9,47.3,31.1,47.2"/>
		<path class="st6" d="M27.7,42.1C27.7,42.1,27.7,42.1,27.7,42.1c0,0,0,0.1,0,0.1C27.7,42.2,27.7,42.2,27.7,42.1"/>
		<polygon class="st6" points="28.5,43 28.5,43 28.5,43 		"/>
		<path class="st3" d="M27.7,42.2c0.2,0,0.5,0.1,0.7,0.1c0,0.2,0.1,0.4,0.2,0.6c-0.2-0.1-0.3-0.2-0.4-0.3
			C28,42.5,27.8,42.4,27.7,42.2 M28.5,43.1c0-0.1,0-0.1,0-0.2l0,0l0,0c0-0.3,0.1-0.6,0.1-0.9c0,0-0.1,0-0.2,0c-0.3,0-0.5,0-0.8,0.1
			c0,0,0,0.1,0,0.1c0,0,0-0.1-0.1-0.1c-0.7,0.2-1.3,0.5-1.8,1l0,0.1c0.4,1,1.2,1.7,2.2,2.2c0,0,0,0,0,0.1c0.3-0.1,0.7-0.3,0.9-0.5
			C28.7,44.4,28.5,43.8,28.5,43.1"/>
		<path class="st6" d="M30,43.6c-0.2-0.1-0.4-0.1-0.5-0.2c0.2-0.1,0.4-0.2,0.6-0.2c0,0,0,0,0.1,0.1c0.1-0.2,0.2-0.5,0.2-0.8
			c-0.5-0.3-1.1-0.4-1.7-0.5c-0.1,0.3-0.1,0.6-0.1,0.9c0.2,0,0.4-0.1,0.6-0.1c0.1,0.2,0.2,0.4,0.3,0.6c-0.3-0.1-0.6-0.3-0.9-0.4
			c0,0.1,0,0.1,0,0.2c0,0.7,0.2,1.3,0.4,1.8C29.4,44.6,29.8,44.2,30,43.6"/>
		<path class="st6" d="M35.1,46.7c-0.1,0.1-0.3,0.2-0.4,0.2c0.1,0,0.3,0,0.4,0c0.1,0,0.1,0,0.2,0C35.2,46.9,35.1,46.8,35.1,46.7"/>
		<path class="st6" d="M32.5,44.2L32.5,44.2L32.5,44.2C32.5,44.3,32.5,44.3,32.5,44.2L32.5,44.2z"/>
		<path class="st4" d="M32.5,44.3c0.2-0.1,0.4-0.2,0.6-0.3c0.1,0.2,0.3,0.3,0.3,0.5C33,44.4,32.8,44.3,32.5,44.3 M35.1,46.7
			c-0.3-0.5-0.4-1.1-0.4-1.8c0-0.6,0.2-1.2,0.4-1.8l0,0h0c-1,0-1.9,0.4-2.6,1.1l0,0.1c0,0-0.1,0-0.1,0c-0.1,0.1-0.2,0.2-0.3,0.4
			c0.1,0.4,0.2,0.8,0.2,1.2c0,0.3,0,0.5-0.1,0.8c1,0.1,1.7,0.1,1.9,0.1c0.1,0.1,0.3,0.2,0.5,0.2C34.8,46.9,34.9,46.8,35.1,46.7
			L35.1,46.7L35.1,46.7z"/>
		<path class="st3" d="M38,45.6c-0.3,0-0.8-0.1-1.1,0c-0.1,0-0.2,0-0.3,0c0.3-0.1,0.6-0.2,0.8-0.3c0.2-0.2,0.8-0.2,1.1-0.1
			c-0.3-0.6-0.8-1.2-1.5-1.6c-0.2,1.3-0.9,2.4-1.9,3c0,0.1,0.1,0.2,0.2,0.3c0.5,0,0.9-0.2,1.1-0.3c0.2-0.2,0.9-0.1,1.4-0.1
			c0.3-0.1,0.7-0.2,1-0.4c0-0.1-0.1-0.3-0.1-0.4C38.4,45.7,38.2,45.7,38,45.6"/>
		<path class="st5" d="M32.1,44.6c-0.4,0.5-0.7,1.2-0.7,1.8c0.3,0.1,0.6,0.1,0.9,0.1c0.1-0.3,0.1-0.5,0.1-0.8
			C32.3,45.4,32.2,45,32.1,44.6"/>
		<path class="st6" d="M35.6,43.7c0.1,0.1,0.3,0.1,0.5,0.2c0.1,0,0.3,0.1,0.4,0.1c0,0.2-0.2,0.4-0.5,0.4c-0.2,0-0.4-0.2-0.4-0.5
			C35.5,43.8,35.5,43.7,35.6,43.7 M35.1,46.7c1-0.7,1.7-1.8,1.9-3c-0.6-0.3-1.2-0.5-1.9-0.5h0c-0.3,0.5-0.4,1.1-0.4,1.8
			C34.6,45.6,34.8,46.2,35.1,46.7"/>
		<path class="st6" d="M35.1,43.2L35.1,43.2c-0.3,0.5-0.4,1.1-0.4,1.8c0,0.6,0.2,1.2,0.4,1.8l0,0c-0.3-0.5-0.4-1.1-0.4-1.8
			C34.6,44.3,34.8,43.7,35.1,43.2"/>
		<path class="st4" d="M17.4,39.2c0,0.1,0,0.2,0.1,0.3h0c0.6,0,1.2,0.2,1.6,0.5v0c0-0.1,0-0.1,0-0.1c-0.1-0.2-0.5-0.6-0.6-0.7
			c-0.3,0.1-0.5,0.1-0.8,0.1C17.6,39.2,17.5,39.2,17.4,39.2"/>
		<path class="st5" d="M12,40.5c0-0.2-0.1-0.4-0.1-0.6c0-0.1,0-0.2,0-0.4c-0.1,0-0.1,0-0.2,0c-0.2,0-0.3,0-0.5,0
			c-0.1,0.1-0.1,0.2-0.2,0.2c0,0,0,0-0.1,0.1c-0.1,0.1-0.1,0.1-0.2,0.1l0,0l0,0c-0.1,0.1-0.2,0.1-0.3,0.2c0.1,0.2,0.2,0.4,0.2,0.6
			C11,40.7,11.5,40.5,12,40.5"/>
		<path class="st5" d="M15.6,45.1L15.6,45.1c0,0,0-0.2,0.1-0.4c-0.1-0.1-0.2-0.1-0.2-0.2c0,0.3-0.1,0.5-0.2,0.7
			c0.1,0,0.1,0.1,0.2,0.1C15.5,45.3,15.6,45.2,15.6,45.1"/>
		<path class="st6" d="M14.8,38c0.1,0,0.2,0.1,0.2,0.2c0,0.1-0.1,0.2-0.2,0.2c-0.2,0-0.4,0-0.7,0c-0.1,0.1-0.1,0.1-0.2,0.2
			c0.8,0.2,2.2,0.7,2.8,1l0,0c0.2-0.1,0.4-0.1,0.7-0.1c0-0.1,0-0.2-0.1-0.3c-1.1-0.1-2.1-0.8-2.4-1.9c-0.1,0-0.3,0-0.4,0h0
			c0,0.2-0.1,0.4-0.2,0.6C14.5,37.9,14.7,37.9,14.8,38"/>
		<path class="st6" d="M13.7,39.3c0.4,0.2,0.7,0.5,1,0.8c-0.2,0-0.6,0-0.7-0.1C13.8,39.9,13.7,39.5,13.7,39.3 M14.4,41.3L14.4,41.3
			c0-0.1,0.1-0.1,0.1-0.1c0.2-0.3,0.4-0.8,0.7-1c0.1-0.1,0.1-0.1,0.2-0.1c0.1,0,0.2,0,0.2,0c0,0,0.1,0,0.1,0.1l0,0.1l0,0
			c0.2-0.2,0.4-0.3,0.7-0.4h0c-0.1,0-0.3-0.1-0.3-0.1s-1.8-0.7-2.3-0.7c-0.5,0.4-1.1,0.7-1.8,0.8c0,0.1,0,0.2,0,0.4
			c0,0.2,0,0.4,0.1,0.6c0.1,0,0.1,0,0.2,0c0.1,0,0.2,0,0.2,0c0-0.1,0.2-0.6,0.2-0.7c0-0.1,0.1-0.2,0.2-0.1c0.1,0,0.2,0.1,0.1,0.2
			c0,0.1-0.2,0.6-0.2,0.7C13.4,40.7,13.9,40.9,14.4,41.3L14.4,41.3z"/>
		<path class="st5" d="M17.5,39.5c0,0.2,0,0.3,0,0.5l0,0l0,0c0.1,0,0.1,0.1,0.1,0.1c0,0,0.1,0.1,0.2,0.2c0.1,0.1,0.3,0.2,0.4,0.3
			c0.1,0.1,0.1,0.2,0,0.2c-0.1,0.1-0.2,0.1-0.2,0c0-0.1-0.1-0.1-0.2-0.2c-0.1-0.1-0.3-0.2-0.3-0.3c-0.2,1.1-1,2-2.1,2.3
			c0.1,0.4,0.2,0.8,0.2,1.2c0,0.2,0,0.4-0.1,0.6c0.1,0.1,0.1,0.1,0.2,0.2c0-0.1,0.1-0.2,0.1-0.3l0,0l0-0.1c0.2-0.4,1.2-0.4,2.1-1.9
			c0.1-0.1,0.2-0.3,0.3-0.6c0-0.1,0.8-1.3,0.7-1.9v0C18.6,39.7,18.1,39.5,17.5,39.5L17.5,39.5L17.5,39.5z"/>
		<path class="st4" d="M16.7,41.2c-0.1,0-0.1,0-0.2,0c-0.2,0-0.5-0.3-0.6-0.4c0.2,0,0.3,0,0.5,0c0.3,0,0.6,0,0.8,0.1
			C17.1,41,16.9,41.1,16.7,41.2 M17.5,40.4L17.5,40.4c-0.2-0.2-0.7-0.4-1.1-0.7l0,0c-0.2,0.1-0.5,0.2-0.7,0.4
			c-0.3,0.3-0.6,0.6-0.8,1l0,0l0,0c0,0,0,0.1,0,0.1c0,0.1-0.1,0.2-0.1,0.3l0,0c0.3,0.3,0.5,0.7,0.7,1.1
			C16.4,42.4,17.3,41.5,17.5,40.4L17.5,40.4L17.5,40.4z"/>
		<path class="st4" d="M17.5,40L17.5,40L17.5,40c0-0.2,0-0.3,0-0.5c-0.2,0-0.5,0-0.7,0.1l0,0C17,39.7,17.3,39.9,17.5,40"/>
		<path class="st5" d="M17.4,39.2c0.1,0,0.2,0,0.3,0c0.3,0,0.5,0,0.8-0.1l0,0c-0.3-0.2-1-0.9-1.2-1c-0.2-0.1-0.3-0.2-0.5-0.3
			c0,0-0.1-0.1-0.2-0.1c-0.1,0-0.2-0.1-0.3-0.1C16.8,38,17.2,38.6,17.4,39.2"/>
		<path class="st4" d="M17.4,39.2c-0.2-0.6-0.6-1.2-1.1-1.6c-0.4-0.1-0.9-0.3-1.3-0.3h0C15.3,38.4,16.3,39.1,17.4,39.2"/>
		<path class="st4" d="M11.8,39.6c0.1,0,0.1,0,0.2,0c0.1-0.7,0.5-1.4,1-1.8c-0.2,0.1-0.4,0.1-0.5,0.2c-0.1,0-0.3,0.1-0.5,0.1
			c-0.1,0.6-0.3,1.1-0.6,1.5C11.4,39.6,11.6,39.6,11.8,39.6"/>
		<path class="st3" d="M14.1,38.3c-0.2,0-0.3,0.1-0.5,0.1c-0.1,0-0.1,0-0.2,0.1l0,0c0,0,0,0,0.1,0c0,0,0.1,0,0.1,0
			c0.1,0,0.2,0,0.4,0C14,38.5,14.1,38.4,14.1,38.3L14.1,38.3L14.1,38.3z"/>
		<path class="st3" d="M11.9,39.6c0.7,0,1.3-0.3,1.8-0.8h0c0,0-0.1,0-0.1,0c-0.1,0-0.1,0-0.2,0c0,0-0.1,0-0.1,0
			c-0.1,0-0.1,0-0.1-0.1c0,0,0,0,0-0.1c0-0.1,0-0.3,0-0.3s0-0.1,0.1-0.2l0,0c0.1-0.1,0.3-0.1,0.5-0.2c0.2,0,0.3-0.1,0.5-0.1l0,0h0
			c0.1-0.2,0.2-0.4,0.2-0.6l0,0c-0.2,0-0.3,0-0.6,0.1c-0.3,0.1-0.6,0.2-1,0.3C12.4,38.2,12,38.8,11.9,39.6"/>
		<path class="st6" d="M10.4,40.2C10,40.5,9.5,40.6,9,40.6c0.3,0.3,0.5,0.6,0.8,0.8c0.2-0.2,0.5-0.4,0.8-0.6
			C10.6,40.6,10.5,40.4,10.4,40.2"/>
		<path class="st6" d="M11,39.8C11,39.8,11,39.8,11,39.8c0.1-0.1,0.2-0.2,0.3-0.3c-0.4-0.1-0.8-0.2-1.1-0.4c0,0-0.1,0-0.2,0
			c0,0-0.1,0-0.1,0c-0.1,0-0.2,0.1-0.3,0.1c0.3,0.2,0.5,0.5,0.7,0.8c0.1,0,0.2,0,0.3,0c0.1,0,0.1,0,0.1,0l0.1,0
			C10.8,39.9,10.9,39.9,11,39.8"/>
		<polygon class="st6" points="10.7,40 10.7,40 10.8,40 		"/>
		<path class="st6" d="M11,39.8C11,39.8,11,39.8,11,39.8C11,39.8,11,39.8,11,39.8"/>
		<path class="st3" d="M9.3,38.4c0,0,0.1,0,0.1,0L9.3,38.4C9.4,38.4,9.4,38.4,9.3,38.4"/>
		<path class="st3" d="M11.9,38.1c-0.3,0.1-0.6,0.1-0.6,0.1c-0.6,0.1-0.4,0.1-1.1,0.1c-0.2,0-0.5,0-0.7,0.1l0,0c0.3,0,0.7,0.2,1,0.3
			l0,0c0.3,0.2,0.6,0.4,0.9,0.4c-0.2,0-0.3,0-0.5,0c-0.2,0-0.5-0.1-0.7-0.1c0.3,0.2,0.7,0.4,1.1,0.4C11.6,39.1,11.8,38.6,11.9,38.1"
			/>
		<path class="st4" d="M9.6,39.3c-0.4,0.1-0.6,0.2-1.2,0.1c-0.1,0.2,0.9,0.5,1.1,0.6c0.1,0,0.5,0.1,0.8,0.1
			C10.1,39.8,9.9,39.5,9.6,39.3"/>
		<path class="st3" d="M14.5,43.4c0,0.1-0.1,0.1-0.2,0.1c-0.5-0.1-0.9-0.4-1.2-0.7c-0.1-0.1-0.1-0.2-0.2-0.2c0-0.1,0-0.1,0-0.2
			c0,0,0,0,0.1-0.1c0,0,0,0,0.1,0c0.1,0,0.1,0,0.1,0.1l0,0c0,0.1,0.1,0.2,0.2,0.3c0.2,0.2,0.5,0.4,0.9,0.5
			C14.5,43.2,14.6,43.3,14.5,43.4 M14.6,42.7c-0.9,0-1.7-0.5-2.2-1.2c0,0,0,0.1,0,0.1c0,0,0,0.1,0,0.1c0,0.1,0,0.2,0,0.3
			c0,0,0,0.1,0,0.1c0,0.2,0.1,0.4,0.2,0.7c0,0.1,0,0.2-0.1,0.2c-0.1,0-0.2,0-0.2,0l0,0c-0.1-0.2-0.1-0.4-0.2-0.5L11.8,43
			c0.2,0.1,0.4,0.3,0.6,0.4c0.7,0.2,1.3,0.5,1.7,1.1c0.4,0.2,0.8,0.5,1.3,0.7c0.1-0.2,0.2-0.5,0.2-0.7C15,44.1,14.7,43.4,14.6,42.7"
			/>
		<path class="st3" d="M12,41.7c0-0.1,0-0.2,0.1-0.3c0,0,0-0.1,0-0.1c0,0,0-0.1,0-0.1C12.1,41,12,40.7,12,40.5
			c-0.5,0-0.9,0.2-1.3,0.4c0.1,0.2,0.1,0.5,0.1,0.7c0,0.2,0,0.4-0.1,0.6c0.3,0.2,0.5,0.5,0.8,0.7C11.8,42.4,12,42,12,42
			C12,41.9,12,41.8,12,41.7"/>
		<path class="st4" d="M14.6,41.7c-0.1,0-0.5-0.2-0.6-0.1c-0.1,0.1-0.1,0.3,0.1,0.5c0.1,0.1,0,0.2-0.1,0.2c-0.1,0-0.2,0-0.2,0l0,0
			c-0.2-0.4-0.2-0.7-0.1-0.9c0.1-0.1,0.3-0.2,0.6-0.1l0,0c-0.5-0.4-1-0.6-1.6-0.7l0,0c-0.1,0.2-0.1,0.4-0.2,0.5c0,0-0.1,0.3-0.2,0.5
			c0.5,0.7,1.3,1.2,2.2,1.2c0-0.1,0-0.2,0-0.4C14.6,42.2,14.6,41.9,14.6,41.7"/>
		<path class="st4" d="M12,40.5c0,0.2,0.1,0.4,0.2,0.7c0-0.1,0.1-0.2,0.1-0.2c0-0.1,0.1-0.3,0.2-0.4l0,0c-0.1,0-0.2,0-0.2,0
			C12.1,40.5,12,40.5,12,40.5"/>
		<path class="st4" d="M15.3,42.7c-0.2,0-0.4,0.1-0.6,0.1c0,0-0.1,0-0.1,0c0.1,0.7,0.4,1.3,0.9,1.8c0-0.2,0.1-0.4,0.1-0.6
			C15.6,43.5,15.5,43.1,15.3,42.7"/>
		<path class="st5" d="M15.3,42.7c-0.2-0.4-0.4-0.8-0.7-1.1l0,0c0,0,0,0.1,0,0.1h0c0,0.2-0.1,0.4-0.1,0.6c0,0.1,0,0.2,0,0.4
			c0,0,0.1,0,0.1,0C14.9,42.7,15.1,42.7,15.3,42.7"/>
		<path class="st6" d="M12.3,43.5c0.5,0.4,1.1,0.7,1.7,1.1C13.6,44,13,43.6,12.3,43.5"/>
		<path class="st4" d="M10.6,40.9c-0.3,0.1-0.6,0.3-0.8,0.6c0,0,0.1,0.1,0.1,0.1c0.2,0.2,0.5,0.4,0.7,0.6c0-0.2,0.1-0.4,0.1-0.6
			C10.7,41.3,10.7,41.1,10.6,40.9"/>
	</g>
	<g>
		<path class="st24" d="M51,24.5c0-4.7,3.6-8.1,8.5-8.1c2.7,0,4.9,1,6.4,2.8l-2.3,2.1c-1-1.2-2.4-1.8-3.9-1.8c-2.9,0-5,2-5,5
			c0,2.9,2.1,5,5,5c1.6,0,2.9-0.6,3.9-1.8l2.3,2.1c-1.5,1.8-3.7,2.8-6.4,2.8C54.6,32.6,51,29.2,51,24.5"/>
		<path class="st24" d="M80.4,24.5c0-3-2.1-5-4.9-5c-2.8,0-4.9,2-4.9,5c0,3,2.1,5,4.9,5C78.3,29.5,80.4,27.5,80.4,24.5 M67,24.5
			c0-4.6,3.6-8.1,8.5-8.1c4.9,0,8.5,3.4,8.5,8.1c0,4.7-3.6,8.1-8.5,8.1C70.6,32.6,67,29.1,67,24.5"/>
		<path class="st24" d="M92.5,19.7h-2.9v5.4h2.9c2.2,0,3.3-1,3.3-2.7C95.8,20.7,94.7,19.7,92.5,19.7 M95.8,32.3l-3-4.3h-0.2h-3.1
			v4.3h-3.6V16.7h6.7c4.2,0,6.8,2.2,6.8,5.7c0,2.3-1.2,4.1-3.2,4.9l3.5,5L95.8,32.3L95.8,32.3z"/>
		<path class="st24" d="M108.8,19.7h-2.9v5.4h2.9c2.2,0,3.3-1,3.3-2.7C112.1,20.7,111,19.7,108.8,19.7 M112.2,32.3l-3-4.3H109h-3.1
			v4.3h-3.6V16.7h6.7c4.2,0,6.8,2.2,6.8,5.7c0,2.3-1.2,4.1-3.2,4.9l3.5,5L112.2,32.3L112.2,32.3z"/>
		<rect x="118.6" y="16.7" class="st24" width="3.6" height="15.6"/>
		<polygon class="st24" points="138,29.4 138,32.3 125.9,32.3 125.9,16.7 137.7,16.7 137.7,19.6 129.5,19.6 129.5,23 136.7,23 
			136.7,25.8 129.5,25.8 129.5,29.4 		"/>
		<polygon class="st24" points="155.2,16.7 155.2,32.3 152.2,32.3 144.4,22.8 144.4,32.3 140.9,32.3 140.9,16.7 143.9,16.7 
			151.6,26.2 151.6,16.7 		"/>
		<polygon class="st24" points="162.1,19.7 157.1,19.7 157.1,16.7 170.7,16.7 170.7,19.7 165.7,19.7 165.7,32.3 162.1,32.3 		"/>
		<polygon class="st24" points="184.7,29.4 184.7,32.3 172.6,32.3 172.6,16.7 184.4,16.7 184.4,19.6 176.2,19.6 176.2,23 183.4,23 
			183.4,25.8 176.2,25.8 176.2,29.4 		"/>
		<path class="st24" d="M186.3,30.8l1.2-2.7c1.3,1,3.3,1.6,5.1,1.6c2.1,0,3-0.7,3-1.7c0-2.9-9.1-0.9-9.1-6.7c0-2.6,2.1-4.9,6.6-4.9
			c2,0,4,0.5,5.4,1.4l-1.1,2.7c-1.4-0.8-2.9-1.2-4.3-1.2c-2.1,0-3,0.8-3,1.8c0,2.9,9.1,0.9,9.1,6.6c0,2.6-2.2,4.8-6.6,4.8
			C190.2,32.6,187.7,31.8,186.3,30.8"/>
	</g>
	<g>
		<path class="st24" d="M104.9,42.4c0.2-0.7,0.8-1.6,1.6-1.9h0C106.4,41.2,105.5,42.2,104.9,42.4L104.9,42.4L104.9,42.4L104.9,42.4z
			 M107.3,44.2c-0.3,2.7-2.2,2.1-2.2,2.1c-1-0.2-0.8-2.2-0.7-2.2c3.1-0.5,4.5-5,2-5c0,0-2.4-0.1-3.5,4.1c0,0-0.1,0.6-0.2,0.9
			c0,0-0.3,3.6,2.6,3.6c0.6,0,1.2-0.2,1.8-0.7c0.7-0.6,1-1.3,1-1.9C108,44.5,107.4,43.8,107.3,44.2"/>
		<path class="st24" d="M138.5,42.3c0.2-0.7,0.8-1.6,1.6-1.9h0C140,41.1,139.1,42.1,138.5,42.3L138.5,42.3L138.5,42.3z M140.9,44.1
			c-0.2,2.6-2.2,2.1-2.2,2.1c-1-0.2-0.8-2.2-0.7-2.2c3.1-0.5,4.5-5,2-4.9c0,0-2.3-0.1-3.5,4.1c0,0-0.6,0-0.7,0.6
			c0,0.2,0.2,0.4,0.5,0.3c0,0-0.3,3.6,2.6,3.6c0.6,0,1.2-0.2,1.8-0.7c0.7-0.6,1-1.3,0.9-1.9C141.6,44.4,141.1,43.7,140.9,44.1"/>
		<path class="st24" d="M119.1,39.1c0,0-0.4,1.1-0.4,1.6c0.1,0.6,0.7,1.9,1.3,1.5c0.6-0.3,1.5-3.4,1.6-3.9c0.3-1.2,0.2-2.3-0.3-2.4
			c-0.3-0.1-0.7,0.2-1.2,1C119.8,37.6,119.1,39.1,119.1,39.1 M117.5,36.4c0,0.2,0,0.8,0,1.8v0h0c0.3-0.8,0.9-1.7,1.9-2.8
			c0.7-0.7,1.3-1.1,2-1.1c0.8,0,1.4,0.5,1.8,1.6c0.1,0.4,0.2,0.9,0.2,1.3c0,2-1,4.3-1.8,5.2c-0.8,0.9-1.7,1.6-2.4,1.5
			c-0.7-0.1-0.9-0.7-1.2-1.2c-0.3,0.7-0.3,5.9-0.3,6.1c0,1.7-0.1,2.5-0.2,2.5c-0.1,0.2-0.3,0.4-0.8,0.4c-0.5,0-0.6-0.6-0.6-1
			c-0.2-0.5-0.1-11-0.1-11.9c0-0.2,0-1.1,0.1-2.6C116.2,34.4,117.5,34.8,117.5,36.4"/>
		<path class="st24" d="M129.5,58.8V59c2-0.8,2.7-4.4,3.1-6.2C131.2,54,129.5,57,129.5,58.8 M134.2,38.6h0.1c1.3,0,1.1,8.5,1.1,8.5
			c0,0.5-0.3,10.8-4.4,13c-1.8,1-3.3,0.3-3.3-1.8c0-3.2,5.4-8.7,5.4-8.7l0.1-0.5c0,0,0.3-4.4,0.2-6.1h0c-0.3,1-2.2,5.9-3.7,3.7
			c-0.7-1.7-0.7-3.8-0.6-5.6c0-0.7,0.1-2.2,0.6-2.5h0c1.2,0,0.9,5.2,0.9,6.2h0C131,43.6,133.2,38.6,134.2,38.6"/>
		<path class="st24" d="M140.9,36.8c0.2-0.2,0.5,0,0.6,0.1c0.1,0.2,0.4,1-0.4,1.3c-0.8,0.3,0,0,0,0c-0.1,0.1-1.8,0.6-2,0.4
			c-0.3-0.2-0.2-1,0-1.1c0.2-0.1,0.7-0.2,0.8-0.2C140.5,37.3,140.7,37,140.9,36.8"/>
		<path class="st24" d="M122.7,46c-0.7-0.7,1.7-4.3,3.3-4.1C125.5,43.9,123.5,46.3,122.7,46 M126.3,40.4c-3.4-0.5-7.7,7.4-3.5,7.3
			c1.7,0,3.2-1.8,3.8-3.6c0.5,2.6,1,3.6,1.5,4.4c0.1,0.2,0.2,0.3,0.4,0.3c0,0,0.4,0,0.4-0.4c-0.8-3.7-0.9-4.3-1-8
			C127.7,39.6,126.3,39.8,126.3,40.4"/>
		<g>
			<path class="st24" d="M108,46.4c-0.4-0.1-0.2,0.7,0.4,1.2c0.2,0.2,0.4,0.3,0.8,0.4c1,0.1,1.5-0.3,1.4-0.5l-0.3-1.2
				c-0.3,0.3-1.1,0.6-1.7,0.4C108.3,46.6,108.4,46.6,108,46.4"/>
			<g>
				<path class="st24" d="M108.8,40.3c0.5-1.3,2.1-1.4,2.8-0.9c1.3,0.8,1.2,2.4,0.7,2.4c-0.5,0-0.5-2.1-1.8-1.3
					c-1,0.6,2.4,4.4,0.6,6.8c-1.2,1.6-2.5-0.2-2.3-0.4c0,0,2.1-0.4,0.9-2.8C108.7,42.1,108.4,41,108.8,40.3z M112.2,40.8
					C112.2,40.8,112.1,40.8,112.2,40.8C112.1,40.8,112.1,40.8,112.2,40.8z"/>
			</g>
		</g>
	</g>
</g>
</svg>
